G04*
G04 #@! TF.GenerationSoftware,Altium Limited,Altium Designer,21.4.1 (30)*
G04*
G04 Layer_Color=255*
%FSLAX25Y25*%
%MOIN*%
G70*
G04*
G04 #@! TF.SameCoordinates,5C5CB9DB-6683-4862-BC7F-C0E48B32F829*
G04*
G04*
G04 #@! TF.FilePolarity,Positive*
G04*
G01*
G75*
%ADD31R,0.23622X0.15748*%
%ADD71R,0.05433X0.03622*%
%ADD72R,0.15748X0.07874*%
%ADD73R,0.31496X0.15748*%
G04:AMPARAMS|DCode=77|XSize=74.8mil|YSize=132.68mil|CornerRadius=2.62mil|HoleSize=0mil|Usage=FLASHONLY|Rotation=180.000|XOffset=0mil|YOffset=0mil|HoleType=Round|Shape=RoundedRectangle|*
%AMROUNDEDRECTD77*
21,1,0.07480,0.12744,0,0,180.0*
21,1,0.06957,0.13268,0,0,180.0*
1,1,0.00524,-0.03478,0.06372*
1,1,0.00524,0.03478,0.06372*
1,1,0.00524,0.03478,-0.06372*
1,1,0.00524,-0.03478,-0.06372*
%
%ADD77ROUNDEDRECTD77*%
%ADD78R,0.02362X0.08661*%
%ADD80R,0.04724X0.06496*%
%ADD85C,0.31496*%
%ADD86C,0.05906*%
%ADD87C,0.21748*%
%ADD88R,0.15748X0.15748*%
%ADD89O,0.08425X0.04213*%
%ADD90R,0.07087X0.07087*%
%ADD91R,0.04764X0.04764*%
%ADD92C,0.04764*%
%ADD93R,0.14630X0.14630*%
%ADD94C,0.14630*%
%ADD95O,0.09449X0.04724*%
%ADD96C,0.07480*%
%ADD97C,0.13780*%
%ADD98C,0.05347*%
%ADD99C,0.05150*%
%ADD100C,0.09843*%
%ADD101C,0.06693*%
%ADD102R,0.06693X0.06693*%
%ADD103R,0.05906X0.05906*%
%ADD104O,0.05512X0.08268*%
%ADD105O,0.08268X0.05512*%
%ADD106C,0.39370*%
%ADD107C,0.17717*%
%ADD131R,0.05118X0.05906*%
%ADD132R,0.03622X0.05433*%
D31*
X132350Y153852D02*
D03*
Y178734D02*
D03*
Y128971D02*
D03*
X132350Y311333D02*
D03*
Y336215D02*
D03*
Y286451D02*
D03*
Y75112D02*
D03*
Y99994D02*
D03*
Y50230D02*
D03*
Y232593D02*
D03*
Y257474D02*
D03*
Y207711D02*
D03*
D71*
X504637Y219654D02*
D03*
Y227173D02*
D03*
D72*
X349309Y161874D02*
D03*
Y148094D02*
D03*
X349309Y319354D02*
D03*
Y305575D02*
D03*
Y83134D02*
D03*
Y69354D02*
D03*
Y240614D02*
D03*
Y226835D02*
D03*
D73*
X341466Y179817D02*
D03*
Y130053D02*
D03*
X341465Y337297D02*
D03*
Y287533D02*
D03*
Y101077D02*
D03*
Y51313D02*
D03*
Y258557D02*
D03*
Y208793D02*
D03*
D77*
X365428Y339000D02*
D03*
X386372D02*
D03*
X365428Y182300D02*
D03*
X386372D02*
D03*
X366155Y256000D02*
D03*
X387100D02*
D03*
X366455Y100400D02*
D03*
X387400D02*
D03*
D78*
X394137Y136950D02*
D03*
Y116477D02*
D03*
X389137Y136950D02*
D03*
X399137D02*
D03*
X404137D02*
D03*
X389137Y116477D02*
D03*
X399137D02*
D03*
X404137D02*
D03*
X394237Y293150D02*
D03*
Y272677D02*
D03*
X389237Y293150D02*
D03*
X399237D02*
D03*
X404237D02*
D03*
X389237Y272677D02*
D03*
X399237D02*
D03*
X404237D02*
D03*
D80*
X410649Y316513D02*
D03*
X399625D02*
D03*
X381907Y231813D02*
D03*
X370884D02*
D03*
X381907Y70313D02*
D03*
X370884D02*
D03*
X381907Y242413D02*
D03*
X370884D02*
D03*
X381907Y81913D02*
D03*
X370884D02*
D03*
X418125Y270913D02*
D03*
X429149D02*
D03*
X418125Y132513D02*
D03*
X429149D02*
D03*
X411888Y282774D02*
D03*
X422912D02*
D03*
X418125Y118013D02*
D03*
X429149D02*
D03*
X381907Y311913D02*
D03*
X370884D02*
D03*
X381907Y151496D02*
D03*
X370884D02*
D03*
X381907Y323713D02*
D03*
X370884D02*
D03*
X381907Y163244D02*
D03*
X370884D02*
D03*
X399625Y305813D02*
D03*
X410649D02*
D03*
X396425Y151313D02*
D03*
X407449D02*
D03*
Y163113D02*
D03*
X396425D02*
D03*
D85*
X430704Y224388D02*
D03*
X712200D02*
D03*
Y379900D02*
D03*
X430704D02*
D03*
X428823Y189035D02*
D03*
X710319D02*
D03*
Y33524D02*
D03*
X428823D02*
D03*
D86*
X461216Y239152D02*
D03*
Y231278D02*
D03*
Y223404D02*
D03*
X459335Y32539D02*
D03*
Y40413D02*
D03*
Y48287D02*
D03*
X776937Y89913D02*
D03*
X766937D02*
D03*
D87*
X745129Y490900D02*
D03*
X626271D02*
D03*
D88*
X754972Y504679D02*
D03*
X636113D02*
D03*
X616428D02*
D03*
X636113Y477120D02*
D03*
X616428D02*
D03*
X735287Y504679D02*
D03*
Y477120D02*
D03*
X754972D02*
D03*
D89*
X331849Y363400D02*
D03*
X331824Y369200D02*
D03*
X331849Y375000D02*
D03*
D90*
X766252Y285646D02*
D03*
Y295646D02*
D03*
Y305646D02*
D03*
Y315646D02*
D03*
X42323Y171732D02*
D03*
Y161732D02*
D03*
Y151732D02*
D03*
Y141732D02*
D03*
X766252Y344646D02*
D03*
Y354646D02*
D03*
Y364646D02*
D03*
Y374646D02*
D03*
D91*
X675750Y308275D02*
D03*
D92*
Y318275D02*
D03*
Y328275D02*
D03*
Y338275D02*
D03*
Y348275D02*
D03*
Y358275D02*
D03*
Y368275D02*
D03*
Y378275D02*
D03*
X644490D02*
D03*
Y368275D02*
D03*
Y358275D02*
D03*
Y348275D02*
D03*
Y338275D02*
D03*
Y328275D02*
D03*
Y318275D02*
D03*
Y308275D02*
D03*
D93*
X737697Y440412D02*
D03*
D94*
Y412065D02*
D03*
D95*
X761319Y452813D02*
D03*
Y399664D02*
D03*
D96*
X175937Y497913D02*
D03*
Y487913D02*
D03*
Y477913D02*
D03*
Y467913D02*
D03*
Y457913D02*
D03*
Y447913D02*
D03*
Y437913D02*
D03*
Y427913D02*
D03*
Y417913D02*
D03*
Y407913D02*
D03*
X250858Y407331D02*
D03*
Y417331D02*
D03*
Y427331D02*
D03*
Y437331D02*
D03*
Y447331D02*
D03*
Y457331D02*
D03*
Y467331D02*
D03*
Y477331D02*
D03*
Y487331D02*
D03*
Y497331D02*
D03*
X103100Y497300D02*
D03*
Y487300D02*
D03*
Y477300D02*
D03*
Y467300D02*
D03*
Y457300D02*
D03*
Y447300D02*
D03*
Y437300D02*
D03*
Y427300D02*
D03*
Y417300D02*
D03*
Y407300D02*
D03*
X323323Y407331D02*
D03*
Y417331D02*
D03*
Y427331D02*
D03*
Y437331D02*
D03*
Y447331D02*
D03*
Y457331D02*
D03*
Y467331D02*
D03*
Y477331D02*
D03*
Y487331D02*
D03*
Y497331D02*
D03*
D97*
X67518Y144387D02*
D03*
Y128639D02*
D03*
X81156Y136513D02*
D03*
X64394Y178039D02*
D03*
Y193787D02*
D03*
X78032Y185913D02*
D03*
X67518Y326287D02*
D03*
Y310539D02*
D03*
X81156Y318413D02*
D03*
X70618Y356039D02*
D03*
Y371787D02*
D03*
X84256Y363913D02*
D03*
X67518Y53987D02*
D03*
Y38239D02*
D03*
X81156Y46113D02*
D03*
X64394Y82065D02*
D03*
Y97813D02*
D03*
X78032Y89939D02*
D03*
X67518Y238487D02*
D03*
Y222739D02*
D03*
X81156Y230613D02*
D03*
X64394Y266639D02*
D03*
Y282387D02*
D03*
X78032Y274513D02*
D03*
D98*
X607937Y408953D02*
D03*
Y438874D02*
D03*
D99*
X650700Y425300D02*
D03*
Y435300D02*
D03*
Y445300D02*
D03*
X488900Y219500D02*
D03*
Y229500D02*
D03*
Y239500D02*
D03*
Y27700D02*
D03*
Y37700D02*
D03*
Y47700D02*
D03*
D100*
X47470Y76036D02*
D03*
Y103595D02*
D03*
X8100Y63832D02*
D03*
X47470Y89816D02*
D03*
X8100Y115800D02*
D03*
D101*
X445600Y429800D02*
D03*
X565600D02*
D03*
X555600D02*
D03*
X545600D02*
D03*
X535600D02*
D03*
X525600D02*
D03*
X515600D02*
D03*
X505600D02*
D03*
X495600D02*
D03*
X485600D02*
D03*
X475600D02*
D03*
X465600D02*
D03*
X435600D02*
D03*
X425600D02*
D03*
X415600D02*
D03*
X405600D02*
D03*
X395600D02*
D03*
X385600D02*
D03*
X455600D02*
D03*
X565600Y489700D02*
D03*
X555600D02*
D03*
X545600D02*
D03*
X535600D02*
D03*
X525600D02*
D03*
X515600D02*
D03*
X505600D02*
D03*
X495600D02*
D03*
X485600D02*
D03*
X475600D02*
D03*
X465600D02*
D03*
X455600D02*
D03*
X445600D02*
D03*
X435600D02*
D03*
X425600D02*
D03*
X415600D02*
D03*
X405600D02*
D03*
X395600D02*
D03*
X385600D02*
D03*
D102*
X375600Y429800D02*
D03*
Y489700D02*
D03*
D103*
X786937Y89913D02*
D03*
D104*
X782827Y113913D02*
D03*
X769047D02*
D03*
D105*
X739100Y139000D02*
D03*
Y152779D02*
D03*
D106*
X789800Y22200D02*
D03*
Y501200D02*
D03*
X21400Y22200D02*
D03*
X21600Y501800D02*
D03*
D107*
X208598Y418898D02*
D03*
D131*
X563647Y399613D02*
D03*
X556166D02*
D03*
X506528Y44913D02*
D03*
X514008D02*
D03*
D132*
X513697Y33913D02*
D03*
X506177D02*
D03*
M02*
