G04*
G04 #@! TF.GenerationSoftware,Altium Limited,Altium Designer,21.4.1 (30)*
G04*
G04 Layer_Color=128*
%FSLAX25Y25*%
%MOIN*%
G70*
G04*
G04 #@! TF.SameCoordinates,5C5CB9DB-6683-4862-BC7F-C0E48B32F829*
G04*
G04*
G04 #@! TF.FilePolarity,Positive*
G04*
G01*
G75*
%ADD136C,0.00200*%
D136*
X423814Y224388D02*
X437594D01*
X430704Y217498D02*
Y231278D01*
X705310Y224388D02*
X719090D01*
X712200Y217498D02*
Y231278D01*
X705310Y379900D02*
X719090D01*
X712200Y373010D02*
Y386790D01*
X423814Y379900D02*
X437594D01*
X430704Y373010D02*
Y386790D01*
X459247Y239152D02*
X463184D01*
X461216Y237183D02*
Y241121D01*
X459247Y231278D02*
X463184D01*
X461216Y229310D02*
Y233246D01*
X459247Y223404D02*
X463184D01*
X461216Y221435D02*
Y225372D01*
X737255Y490900D02*
X753003D01*
X745129Y483026D02*
Y498774D01*
X618397Y490900D02*
X634145D01*
X626271Y483026D02*
Y498774D01*
X751035Y504679D02*
X758909D01*
X754972Y500742D02*
Y508616D01*
X632176Y504679D02*
X640050D01*
X636113Y500742D02*
Y508616D01*
X612491Y504679D02*
X620365D01*
X616428Y500742D02*
Y508616D01*
X632176Y477120D02*
X640050D01*
X636113Y473183D02*
Y481058D01*
X612491Y477120D02*
X620365D01*
X616428Y473183D02*
Y481058D01*
X731350Y504679D02*
X739224D01*
X735287Y500742D02*
Y508616D01*
X731350Y477120D02*
X739224D01*
X735287Y473183D02*
Y481058D01*
X751035Y477120D02*
X758909D01*
X754972Y473183D02*
Y481058D01*
X330176Y363400D02*
X333523D01*
X331849Y361727D02*
Y365073D01*
X330151Y369200D02*
X333497D01*
X331824Y367527D02*
Y370873D01*
X330176Y375000D02*
X333523D01*
X331849Y373327D02*
Y376673D01*
X764284Y285646D02*
X768221D01*
X766252Y283677D02*
Y287614D01*
X764284Y295646D02*
X768221D01*
X766252Y293677D02*
Y297614D01*
X764284Y305646D02*
X768221D01*
X766252Y303677D02*
Y307614D01*
X764284Y315646D02*
X768221D01*
X766252Y313677D02*
Y317614D01*
X40354Y171732D02*
X44291D01*
X42323Y169764D02*
Y173701D01*
X40354Y161732D02*
X44291D01*
X42323Y159764D02*
Y163701D01*
X40354Y151732D02*
X44291D01*
X42323Y149764D02*
Y153701D01*
X40354Y141732D02*
X44291D01*
X42323Y139764D02*
Y143701D01*
X764284Y344646D02*
X768221D01*
X766252Y342677D02*
Y346614D01*
X764284Y354646D02*
X768221D01*
X766252Y352677D02*
Y356614D01*
X764284Y364646D02*
X768221D01*
X766252Y362677D02*
Y366614D01*
X764284Y374646D02*
X768221D01*
X766252Y372677D02*
Y376614D01*
X457366Y32539D02*
X461303D01*
X459335Y30571D02*
Y34508D01*
X457366Y40413D02*
X461303D01*
X459335Y38445D02*
Y42382D01*
X457366Y48287D02*
X461303D01*
X459335Y46319D02*
Y50256D01*
X421933Y189035D02*
X435713D01*
X428823Y182146D02*
Y195925D01*
X703429Y189035D02*
X717209D01*
X710319Y182146D02*
Y195925D01*
X703429Y33524D02*
X717209D01*
X710319Y26634D02*
Y40413D01*
X421933Y33524D02*
X435713D01*
X428823Y26634D02*
Y40413D01*
X674057Y308275D02*
X677443D01*
X675750Y306582D02*
Y309968D01*
X674057Y318275D02*
X677443D01*
X675750Y316582D02*
Y319968D01*
X674057Y328275D02*
X677443D01*
X675750Y326582D02*
Y329968D01*
X674057Y338275D02*
X677443D01*
X675750Y336582D02*
Y339968D01*
X674057Y348275D02*
X677443D01*
X675750Y346582D02*
Y349968D01*
X674057Y358275D02*
X677443D01*
X675750Y356582D02*
Y359968D01*
X674057Y368275D02*
X677443D01*
X675750Y366582D02*
Y369968D01*
X674057Y378275D02*
X677443D01*
X675750Y376582D02*
Y379968D01*
X642797Y378275D02*
X646183D01*
X644490Y376582D02*
Y379968D01*
X642797Y368275D02*
X646183D01*
X644490Y366582D02*
Y369968D01*
X642797Y358275D02*
X646183D01*
X644490Y356582D02*
Y359968D01*
X642797Y348275D02*
X646183D01*
X644490Y346582D02*
Y349968D01*
X642797Y338275D02*
X646183D01*
X644490Y336582D02*
Y339968D01*
X642797Y328275D02*
X646183D01*
X644490Y326582D02*
Y329968D01*
X642797Y318275D02*
X646183D01*
X644490Y316582D02*
Y319968D01*
X642797Y308275D02*
X646183D01*
X644490Y306582D02*
Y309968D01*
X732382Y440412D02*
X743012D01*
X737697Y435097D02*
Y445727D01*
X732382Y412065D02*
X743012D01*
X737697Y406750D02*
Y417380D01*
X760138Y452813D02*
X762500D01*
X761319Y451632D02*
Y453995D01*
X760138Y399664D02*
X762500D01*
X761319Y398483D02*
Y400845D01*
X173969Y497913D02*
X177905D01*
X175937Y495945D02*
Y499882D01*
X173969Y487913D02*
X177905D01*
X175937Y485945D02*
Y489882D01*
X173969Y477913D02*
X177905D01*
X175937Y475945D02*
Y479882D01*
X173969Y467913D02*
X177905D01*
X175937Y465945D02*
Y469882D01*
X173969Y457913D02*
X177905D01*
X175937Y455945D02*
Y459882D01*
X173969Y447913D02*
X177905D01*
X175937Y445945D02*
Y449882D01*
X173969Y437913D02*
X177905D01*
X175937Y435945D02*
Y439882D01*
X173969Y427913D02*
X177905D01*
X175937Y425945D02*
Y429882D01*
X173969Y417913D02*
X177905D01*
X175937Y415945D02*
Y419882D01*
X173969Y407913D02*
X177905D01*
X175937Y405945D02*
Y409882D01*
X248890Y407331D02*
X252827D01*
X250858Y405362D02*
Y409299D01*
X248890Y417331D02*
X252827D01*
X250858Y415362D02*
Y419299D01*
X248890Y427331D02*
X252827D01*
X250858Y425362D02*
Y429299D01*
X248890Y437331D02*
X252827D01*
X250858Y435362D02*
Y439299D01*
X248890Y447331D02*
X252827D01*
X250858Y445362D02*
Y449299D01*
X248890Y457331D02*
X252827D01*
X250858Y455362D02*
Y459299D01*
X248890Y467331D02*
X252827D01*
X250858Y465362D02*
Y469299D01*
X248890Y477331D02*
X252827D01*
X250858Y475362D02*
Y479299D01*
X248890Y487331D02*
X252827D01*
X250858Y485362D02*
Y489299D01*
X248890Y497331D02*
X252827D01*
X250858Y495362D02*
Y499299D01*
X101131Y497300D02*
X105069D01*
X103100Y495331D02*
Y499268D01*
X101131Y487300D02*
X105069D01*
X103100Y485331D02*
Y489268D01*
X101131Y477300D02*
X105069D01*
X103100Y475331D02*
Y479269D01*
X101131Y467300D02*
X105069D01*
X103100Y465332D02*
Y469269D01*
X101131Y457300D02*
X105069D01*
X103100Y455332D02*
Y459269D01*
X101131Y447300D02*
X105069D01*
X103100Y445331D02*
Y449268D01*
X101131Y437300D02*
X105069D01*
X103100Y435331D02*
Y439268D01*
X101131Y427300D02*
X105069D01*
X103100Y425331D02*
Y429269D01*
X101131Y417300D02*
X105069D01*
X103100Y415332D02*
Y419269D01*
X101131Y407300D02*
X105069D01*
X103100Y405332D02*
Y409269D01*
X321354Y407331D02*
X325291D01*
X323323Y405362D02*
Y409299D01*
X321354Y417331D02*
X325291D01*
X323323Y415362D02*
Y419299D01*
X321354Y427331D02*
X325291D01*
X323323Y425362D02*
Y429299D01*
X321354Y437331D02*
X325291D01*
X323323Y435362D02*
Y439299D01*
X321354Y447331D02*
X325291D01*
X323323Y445362D02*
Y449299D01*
X321354Y457331D02*
X325291D01*
X323323Y455362D02*
Y459299D01*
X321354Y467331D02*
X325291D01*
X323323Y465362D02*
Y469299D01*
X321354Y477331D02*
X325291D01*
X323323Y475362D02*
Y479299D01*
X321354Y487331D02*
X325291D01*
X323323Y485362D02*
Y489299D01*
X321354Y497331D02*
X325291D01*
X323323Y495362D02*
Y499299D01*
X62498Y144387D02*
X72538D01*
X67518Y139368D02*
Y149407D01*
X62498Y128639D02*
X72538D01*
X67518Y123620D02*
Y133659D01*
X76136Y136513D02*
X86176D01*
X81156Y131494D02*
Y141533D01*
X59374Y178039D02*
X69414D01*
X64394Y173020D02*
Y183059D01*
X59374Y193787D02*
X69414D01*
X64394Y188768D02*
Y198807D01*
X73013Y185913D02*
X83052D01*
X78032Y180894D02*
Y190933D01*
X62498Y326287D02*
X72538D01*
X67518Y321268D02*
Y331307D01*
X62498Y310539D02*
X72538D01*
X67518Y305520D02*
Y315559D01*
X76136Y318413D02*
X86176D01*
X81156Y313394D02*
Y323433D01*
X65598Y356039D02*
X75638D01*
X70618Y351020D02*
Y361059D01*
X65598Y371787D02*
X75638D01*
X70618Y366768D02*
Y376807D01*
X79236Y363913D02*
X89276D01*
X84256Y358894D02*
Y368933D01*
X62498Y53987D02*
X72538D01*
X67518Y48968D02*
Y59007D01*
X62498Y38239D02*
X72538D01*
X67518Y33220D02*
Y43259D01*
X76136Y46113D02*
X86176D01*
X81156Y41094D02*
Y51133D01*
X59374Y82065D02*
X69414D01*
X64394Y77046D02*
Y87085D01*
X59374Y97813D02*
X69414D01*
X64394Y92794D02*
Y102833D01*
X73012Y89939D02*
X83052D01*
X78032Y84920D02*
Y94959D01*
X62498Y238487D02*
X72538D01*
X67518Y233468D02*
Y243507D01*
X62498Y222739D02*
X72538D01*
X67518Y217720D02*
Y227759D01*
X76136Y230613D02*
X86176D01*
X81156Y225594D02*
Y235633D01*
X59374Y266639D02*
X69414D01*
X64394Y261620D02*
Y271659D01*
X59374Y282387D02*
X69414D01*
X64394Y277368D02*
Y287407D01*
X73013Y274513D02*
X83052D01*
X78032Y269494D02*
Y279533D01*
X606264Y408953D02*
X609610D01*
X607937Y407280D02*
Y410626D01*
X606264Y438874D02*
X609610D01*
X607937Y437201D02*
Y440547D01*
X649125Y425300D02*
X652275D01*
X650700Y423725D02*
Y426875D01*
X649125Y435300D02*
X652275D01*
X650700Y433725D02*
Y436875D01*
X649125Y445300D02*
X652275D01*
X650700Y443725D02*
Y446875D01*
X487325Y219500D02*
X490475D01*
X488900Y217925D02*
Y221075D01*
X487325Y229500D02*
X490475D01*
X488900Y227925D02*
Y231075D01*
X487325Y239500D02*
X490475D01*
X488900Y237925D02*
Y241075D01*
X487325Y27700D02*
X490475D01*
X488900Y26125D02*
Y29275D01*
X487325Y37700D02*
X490475D01*
X488900Y36125D02*
Y39275D01*
X487325Y47700D02*
X490475D01*
X488900Y46125D02*
Y49275D01*
X44281Y76036D02*
X50659D01*
X47470Y72847D02*
Y79225D01*
X44281Y103595D02*
X50659D01*
X47470Y100406D02*
Y106784D01*
X4753Y63832D02*
X11446D01*
X8100Y60485D02*
Y67178D01*
X44281Y89816D02*
X50659D01*
X47470Y86627D02*
Y93005D01*
X4753Y115800D02*
X11446D01*
X8100Y112453D02*
Y119147D01*
X443828Y429800D02*
X447372D01*
X445600Y428028D02*
Y431572D01*
X563828Y429800D02*
X567372D01*
X565600Y428028D02*
Y431572D01*
X553828Y429800D02*
X557372D01*
X555600Y428028D02*
Y431572D01*
X543828Y429800D02*
X547372D01*
X545600Y428028D02*
Y431572D01*
X533828Y429800D02*
X537372D01*
X535600Y428028D02*
Y431572D01*
X523828Y429800D02*
X527372D01*
X525600Y428028D02*
Y431572D01*
X513828Y429800D02*
X517372D01*
X515600Y428028D02*
Y431572D01*
X503828Y429800D02*
X507372D01*
X505600Y428028D02*
Y431572D01*
X493828Y429800D02*
X497372D01*
X495600Y428028D02*
Y431572D01*
X483828Y429800D02*
X487372D01*
X485600Y428028D02*
Y431572D01*
X473828Y429800D02*
X477372D01*
X475600Y428028D02*
Y431572D01*
X463828Y429800D02*
X467372D01*
X465600Y428028D02*
Y431572D01*
X433828Y429800D02*
X437372D01*
X435600Y428028D02*
Y431572D01*
X423828Y429800D02*
X427372D01*
X425600Y428028D02*
Y431572D01*
X413828Y429800D02*
X417372D01*
X415600Y428028D02*
Y431572D01*
X403828Y429800D02*
X407372D01*
X405600Y428028D02*
Y431572D01*
X393828Y429800D02*
X397372D01*
X395600Y428028D02*
Y431572D01*
X383828Y429800D02*
X387372D01*
X385600Y428028D02*
Y431572D01*
X373828Y429800D02*
X377372D01*
X375600Y428028D02*
Y431572D01*
X453828Y429800D02*
X457372D01*
X455600Y428028D02*
Y431572D01*
X563828Y489700D02*
X567372D01*
X565600Y487928D02*
Y491472D01*
X553828Y489700D02*
X557372D01*
X555600Y487928D02*
Y491472D01*
X543828Y489700D02*
X547372D01*
X545600Y487928D02*
Y491472D01*
X533828Y489700D02*
X537372D01*
X535600Y487928D02*
Y491472D01*
X523828Y489700D02*
X527372D01*
X525600Y487928D02*
Y491472D01*
X513828Y489700D02*
X517372D01*
X515600Y487928D02*
Y491472D01*
X503828Y489700D02*
X507372D01*
X505600Y487928D02*
Y491472D01*
X493828Y489700D02*
X497372D01*
X495600Y487928D02*
Y491472D01*
X483828Y489700D02*
X487372D01*
X485600Y487928D02*
Y491472D01*
X473828Y489700D02*
X477372D01*
X475600Y487928D02*
Y491472D01*
X463828Y489700D02*
X467372D01*
X465600Y487928D02*
Y491472D01*
X453828Y489700D02*
X457372D01*
X455600Y487928D02*
Y491472D01*
X443828Y489700D02*
X447372D01*
X445600Y487928D02*
Y491472D01*
X433828Y489700D02*
X437372D01*
X435600Y487928D02*
Y491472D01*
X423828Y489700D02*
X427372D01*
X425600Y487928D02*
Y491472D01*
X413828Y489700D02*
X417372D01*
X415600Y487928D02*
Y491472D01*
X403828Y489700D02*
X407372D01*
X405600Y487928D02*
Y491472D01*
X393828Y489700D02*
X397372D01*
X395600Y487928D02*
Y491472D01*
X383828Y489700D02*
X387372D01*
X385600Y487928D02*
Y491472D01*
X373828Y489700D02*
X377372D01*
X375600Y487928D02*
Y491472D01*
X785165Y89913D02*
X788709D01*
X786937Y88142D02*
Y91685D01*
X775165Y89913D02*
X778709D01*
X776937Y88142D02*
Y91685D01*
X765165Y89913D02*
X768709D01*
X766937Y88142D02*
Y91685D01*
X781252Y113913D02*
X784402D01*
X782827Y112339D02*
Y115488D01*
X767473Y113913D02*
X770622D01*
X769047Y112339D02*
Y115488D01*
X737525Y139000D02*
X740675D01*
X739100Y137425D02*
Y140575D01*
X737525Y152779D02*
X740675D01*
X739100Y151205D02*
Y154354D01*
X780942Y22200D02*
X798658D01*
X789800Y13342D02*
Y31058D01*
X780942Y501200D02*
X798658D01*
X789800Y492342D02*
Y510058D01*
X12542Y22200D02*
X30258D01*
X21400Y13342D02*
Y31058D01*
X12742Y501800D02*
X30458D01*
X21600Y492942D02*
Y510658D01*
X199740Y418898D02*
X217457D01*
X208598Y410039D02*
Y427756D01*
X400200Y240275D02*
X403000D01*
X401600Y238875D02*
Y241675D01*
X475600Y252474D02*
X478400D01*
X477000Y251074D02*
Y253874D01*
X468500Y252674D02*
X471300D01*
X469900Y251274D02*
Y254074D01*
X603866Y341783D02*
X605047D01*
X604456Y341193D02*
Y342374D01*
X609771Y329972D02*
X610953D01*
X610362Y329382D02*
Y330563D01*
X609771Y306350D02*
X610953D01*
X610362Y305760D02*
Y306941D01*
X609771Y282728D02*
X610953D01*
X610362Y282137D02*
Y283319D01*
X609771Y259106D02*
X610953D01*
X610362Y258516D02*
Y259697D01*
X609771Y235484D02*
X610953D01*
X610362Y234893D02*
Y236074D01*
X609771Y211862D02*
X610953D01*
X610362Y211271D02*
Y212453D01*
X609771Y188240D02*
X610953D01*
X610362Y187649D02*
Y188830D01*
X609771Y164618D02*
X610953D01*
X610362Y164027D02*
Y165208D01*
X609771Y140996D02*
X610953D01*
X610362Y140405D02*
Y141586D01*
X609771Y117374D02*
X610953D01*
X610362Y116783D02*
Y117964D01*
X609771Y70130D02*
X610953D01*
X610362Y69539D02*
Y70720D01*
X609771Y46508D02*
X610953D01*
X610362Y45917D02*
Y47098D01*
X592055Y341783D02*
X593236D01*
X592645Y341193D02*
Y342374D01*
X592055Y318161D02*
X593236D01*
X592645Y317571D02*
Y318752D01*
X592055Y294539D02*
X593236D01*
X592645Y293949D02*
Y295130D01*
X592055Y270917D02*
X593236D01*
X592645Y270326D02*
Y271508D01*
X592055Y247295D02*
X593236D01*
X592645Y246705D02*
Y247886D01*
X592055Y223673D02*
X593236D01*
X592645Y223082D02*
Y224264D01*
X592055Y200051D02*
X593236D01*
X592645Y199460D02*
Y200641D01*
X592055Y176429D02*
X593236D01*
X592645Y175838D02*
Y177020D01*
X592055Y152807D02*
X593236D01*
X592645Y152216D02*
Y153397D01*
X592055Y129185D02*
X593236D01*
X592645Y128594D02*
Y129775D01*
X592055Y105563D02*
X593236D01*
X592645Y104972D02*
Y106153D01*
X592055Y81941D02*
X593236D01*
X592645Y81350D02*
Y82531D01*
X592055Y34697D02*
X593236D01*
X592645Y34106D02*
Y35287D01*
X580244Y341783D02*
X581425D01*
X580834Y341193D02*
Y342374D01*
X586149Y329972D02*
X587330D01*
X586740Y329382D02*
Y330563D01*
X580244Y318161D02*
X581425D01*
X580834Y317571D02*
Y318752D01*
X586149Y306350D02*
X587330D01*
X586740Y305760D02*
Y306941D01*
X580244Y294539D02*
X581425D01*
X580834Y293949D02*
Y295130D01*
X586149Y282728D02*
X587330D01*
X586740Y282137D02*
Y283319D01*
X580244Y270917D02*
X581425D01*
X580834Y270326D02*
Y271508D01*
X586149Y259106D02*
X587330D01*
X586740Y258516D02*
Y259697D01*
X580244Y247295D02*
X581425D01*
X580834Y246705D02*
Y247886D01*
X586149Y235484D02*
X587330D01*
X586740Y234893D02*
Y236074D01*
X580244Y223673D02*
X581425D01*
X580834Y223082D02*
Y224264D01*
X586149Y211862D02*
X587330D01*
X586740Y211271D02*
Y212453D01*
X580244Y200051D02*
X581425D01*
X580834Y199460D02*
Y200641D01*
X586149Y188240D02*
X587330D01*
X586740Y187649D02*
Y188830D01*
X580244Y176429D02*
X581425D01*
X580834Y175838D02*
Y177020D01*
X586149Y164618D02*
X587330D01*
X586740Y164027D02*
Y165208D01*
X580244Y152807D02*
X581425D01*
X580834Y152216D02*
Y153397D01*
X586149Y140996D02*
X587330D01*
X586740Y140405D02*
Y141586D01*
X580244Y129185D02*
X581425D01*
X580834Y128594D02*
Y129775D01*
X586149Y117374D02*
X587330D01*
X586740Y116783D02*
Y117964D01*
X580244Y105563D02*
X581425D01*
X580834Y104972D02*
Y106153D01*
X580244Y81941D02*
X581425D01*
X580834Y81350D02*
Y82531D01*
X586149Y70130D02*
X587330D01*
X586740Y69539D02*
Y70720D01*
X586149Y46508D02*
X587330D01*
X586740Y45917D02*
Y47098D01*
X580244Y34697D02*
X581425D01*
X580834Y34106D02*
Y35287D01*
X568433Y341783D02*
X569614D01*
X569023Y341193D02*
Y342374D01*
X568433Y318161D02*
X569614D01*
X569023Y317571D02*
Y318752D01*
X568433Y294539D02*
X569614D01*
X569023Y293949D02*
Y295130D01*
X568433Y270917D02*
X569614D01*
X569023Y270326D02*
Y271508D01*
X568433Y247295D02*
X569614D01*
X569023Y246705D02*
Y247886D01*
X568433Y223673D02*
X569614D01*
X569023Y223082D02*
Y224264D01*
X568433Y200051D02*
X569614D01*
X569023Y199460D02*
Y200641D01*
X568433Y176429D02*
X569614D01*
X569023Y175838D02*
Y177020D01*
X568433Y152807D02*
X569614D01*
X569023Y152216D02*
Y153397D01*
X568433Y129185D02*
X569614D01*
X569023Y128594D02*
Y129775D01*
X568433Y105563D02*
X569614D01*
X569023Y104972D02*
Y106153D01*
X568433Y81941D02*
X569614D01*
X569023Y81350D02*
Y82531D01*
X556622Y341783D02*
X557803D01*
X557212Y341193D02*
Y342374D01*
X556622Y318161D02*
X557803D01*
X557212Y317571D02*
Y318752D01*
X556622Y294539D02*
X557803D01*
X557212Y293949D02*
Y295130D01*
X556622Y270917D02*
X557803D01*
X557212Y270326D02*
Y271508D01*
X556622Y247295D02*
X557803D01*
X557212Y246705D02*
Y247886D01*
X556622Y223673D02*
X557803D01*
X557212Y223082D02*
Y224264D01*
X562527Y211862D02*
X563708D01*
X563118Y211271D02*
Y212453D01*
X556622Y200051D02*
X557803D01*
X557212Y199460D02*
Y200641D01*
X562527Y188240D02*
X563708D01*
X563118Y187649D02*
Y188830D01*
X556622Y176429D02*
X557803D01*
X557212Y175838D02*
Y177020D01*
X562527Y164618D02*
X563708D01*
X563118Y164027D02*
Y165208D01*
X556622Y152807D02*
X557803D01*
X557212Y152216D02*
Y153397D01*
X562527Y140996D02*
X563708D01*
X563118Y140405D02*
Y141586D01*
X556622Y129185D02*
X557803D01*
X557212Y128594D02*
Y129775D01*
X562527Y117374D02*
X563708D01*
X563118Y116783D02*
Y117964D01*
X556622Y105563D02*
X557803D01*
X557212Y104972D02*
Y106153D01*
X556622Y81941D02*
X557803D01*
X557212Y81350D02*
Y82531D01*
X562527Y70130D02*
X563708D01*
X563118Y69539D02*
Y70720D01*
X562527Y46508D02*
X563708D01*
X563118Y45917D02*
Y47098D01*
X544811Y341783D02*
X545992D01*
X545401Y341193D02*
Y342374D01*
X550716Y329972D02*
X551897D01*
X551307Y329382D02*
Y330563D01*
X544811Y318161D02*
X545992D01*
X545401Y317571D02*
Y318752D01*
X550716Y306350D02*
X551897D01*
X551307Y305760D02*
Y306941D01*
X544811Y294539D02*
X545992D01*
X545401Y293949D02*
Y295130D01*
X550716Y282728D02*
X551897D01*
X551307Y282137D02*
Y283319D01*
X544811Y270917D02*
X545992D01*
X545401Y270326D02*
Y271508D01*
X550716Y259106D02*
X551897D01*
X551307Y258516D02*
Y259697D01*
X544811Y247295D02*
X545992D01*
X545401Y246705D02*
Y247886D01*
X550716Y235484D02*
X551897D01*
X551307Y234893D02*
Y236074D01*
X544811Y223673D02*
X545992D01*
X545401Y223082D02*
Y224264D01*
X550716Y211862D02*
X551897D01*
X551307Y211271D02*
Y212453D01*
X544811Y200051D02*
X545992D01*
X545401Y199460D02*
Y200641D01*
X550716Y188240D02*
X551897D01*
X551307Y187649D02*
Y188830D01*
X544811Y176429D02*
X545992D01*
X545401Y175838D02*
Y177020D01*
X550716Y164618D02*
X551897D01*
X551307Y164027D02*
Y165208D01*
X544811Y152807D02*
X545992D01*
X545401Y152216D02*
Y153397D01*
X550716Y140996D02*
X551897D01*
X551307Y140405D02*
Y141586D01*
X544811Y129185D02*
X545992D01*
X545401Y128594D02*
Y129775D01*
X550716Y117374D02*
X551897D01*
X551307Y116783D02*
Y117964D01*
X544811Y105563D02*
X545992D01*
X545401Y104972D02*
Y106153D01*
X544811Y81941D02*
X545992D01*
X545401Y81350D02*
Y82531D01*
X550716Y70130D02*
X551897D01*
X551307Y69539D02*
Y70720D01*
X550716Y46508D02*
X551897D01*
X551307Y45917D02*
Y47098D01*
X533000Y341783D02*
X534181D01*
X533590Y341193D02*
Y342374D01*
X538905Y329972D02*
X540086D01*
X539496Y329382D02*
Y330563D01*
X533000Y318161D02*
X534181D01*
X533590Y317571D02*
Y318752D01*
X538905Y306350D02*
X540086D01*
X539496Y305760D02*
Y306941D01*
X533000Y294539D02*
X534181D01*
X533590Y293949D02*
Y295130D01*
X538905Y282728D02*
X540086D01*
X539496Y282137D02*
Y283319D01*
X533000Y270917D02*
X534181D01*
X533590Y270326D02*
Y271508D01*
X538905Y259106D02*
X540086D01*
X539496Y258516D02*
Y259697D01*
X533000Y247295D02*
X534181D01*
X533590Y246705D02*
Y247886D01*
X538905Y235484D02*
X540086D01*
X539496Y234893D02*
Y236074D01*
X533000Y223673D02*
X534181D01*
X533590Y223082D02*
Y224264D01*
X538905Y211862D02*
X540086D01*
X539496Y211271D02*
Y212453D01*
X533000Y200051D02*
X534181D01*
X533590Y199460D02*
Y200641D01*
X538905Y188240D02*
X540086D01*
X539496Y187649D02*
Y188830D01*
X533000Y176429D02*
X534181D01*
X533590Y175838D02*
Y177020D01*
X538905Y164618D02*
X540086D01*
X539496Y164027D02*
Y165208D01*
X533000Y152807D02*
X534181D01*
X533590Y152216D02*
Y153397D01*
X538905Y140996D02*
X540086D01*
X539496Y140405D02*
Y141586D01*
X533000Y129185D02*
X534181D01*
X533590Y128594D02*
Y129775D01*
X538905Y117374D02*
X540086D01*
X539496Y116783D02*
Y117964D01*
X533000Y105563D02*
X534181D01*
X533590Y104972D02*
Y106153D01*
X533000Y81941D02*
X534181D01*
X533590Y81350D02*
Y82531D01*
X538905Y70130D02*
X540086D01*
X539496Y69539D02*
Y70720D01*
X538905Y46508D02*
X540086D01*
X539496Y45917D02*
Y47098D01*
X527094Y235484D02*
X528275D01*
X527685Y234893D02*
Y236074D01*
X521189Y223673D02*
X522370D01*
X521779Y223082D02*
Y224264D01*
X527094Y211862D02*
X528275D01*
X527685Y211271D02*
Y212453D01*
X521189Y200051D02*
X522370D01*
X521779Y199460D02*
Y200641D01*
X527094Y188240D02*
X528275D01*
X527685Y187649D02*
Y188830D01*
X521189Y176429D02*
X522370D01*
X521779Y175838D02*
Y177020D01*
X527094Y164618D02*
X528275D01*
X527685Y164027D02*
Y165208D01*
X521189Y152807D02*
X522370D01*
X521779Y152216D02*
Y153397D01*
X527094Y140996D02*
X528275D01*
X527685Y140405D02*
Y141586D01*
X521189Y129185D02*
X522370D01*
X521779Y128594D02*
Y129775D01*
X527094Y117374D02*
X528275D01*
X527685Y116783D02*
Y117964D01*
X521189Y105563D02*
X522370D01*
X521779Y104972D02*
Y106153D01*
X527094Y70130D02*
X528275D01*
X527685Y69539D02*
Y70720D01*
X521189Y58319D02*
X522370D01*
X521779Y57728D02*
Y58909D01*
X527094Y46508D02*
X528275D01*
X527685Y45917D02*
Y47098D01*
X515283Y329972D02*
X516464D01*
X515874Y329382D02*
Y330563D01*
X515283Y306350D02*
X516464D01*
X515874Y305760D02*
Y306941D01*
X515283Y282728D02*
X516464D01*
X515874Y282137D02*
Y283319D01*
X515283Y259106D02*
X516464D01*
X515874Y258516D02*
Y259697D01*
X515283Y235484D02*
X516464D01*
X515874Y234893D02*
Y236074D01*
X515283Y211862D02*
X516464D01*
X515874Y211271D02*
Y212453D01*
X515283Y188240D02*
X516464D01*
X515874Y187649D02*
Y188830D01*
X515283Y164618D02*
X516464D01*
X515874Y164027D02*
Y165208D01*
X515283Y140996D02*
X516464D01*
X515874Y140405D02*
Y141586D01*
X515283Y117374D02*
X516464D01*
X515874Y116783D02*
Y117964D01*
X509378Y58319D02*
X510559D01*
X509968Y57728D02*
Y58909D01*
X497567Y341783D02*
X498748D01*
X498157Y341193D02*
Y342374D01*
X497567Y318161D02*
X498748D01*
X498157Y317571D02*
Y318752D01*
X497567Y294539D02*
X498748D01*
X498157Y293949D02*
Y295130D01*
X497567Y270917D02*
X498748D01*
X498157Y270326D02*
Y271508D01*
X497567Y223673D02*
X498748D01*
X498157Y223082D02*
Y224264D01*
X503472Y164618D02*
X504653D01*
X504063Y164027D02*
Y165208D01*
X503472Y140996D02*
X504653D01*
X504063Y140405D02*
Y141586D01*
X503472Y117374D02*
X504653D01*
X504063Y116783D02*
Y117964D01*
X503472Y70130D02*
X504653D01*
X504063Y69539D02*
Y70720D01*
X497567Y58319D02*
X498748D01*
X498157Y57728D02*
Y58909D01*
X485756Y341783D02*
X486937D01*
X486346Y341193D02*
Y342374D01*
X491661Y329972D02*
X492842D01*
X492252Y329382D02*
Y330563D01*
X485756Y318161D02*
X486937D01*
X486346Y317571D02*
Y318752D01*
X491661Y306350D02*
X492842D01*
X492252Y305760D02*
Y306941D01*
X485756Y294539D02*
X486937D01*
X486346Y293949D02*
Y295130D01*
X491661Y282728D02*
X492842D01*
X492252Y282137D02*
Y283319D01*
X485756Y270917D02*
X486937D01*
X486346Y270326D02*
Y271508D01*
X491661Y259106D02*
X492842D01*
X492252Y258516D02*
Y259697D01*
X491661Y235484D02*
X492842D01*
X492252Y234893D02*
Y236074D01*
X485756Y200051D02*
X486937D01*
X486346Y199460D02*
Y200641D01*
X491661Y188240D02*
X492842D01*
X492252Y187649D02*
Y188830D01*
X485756Y176429D02*
X486937D01*
X486346Y175838D02*
Y177020D01*
X491661Y164618D02*
X492842D01*
X492252Y164027D02*
Y165208D01*
X485756Y152807D02*
X486937D01*
X486346Y152216D02*
Y153397D01*
X491661Y140996D02*
X492842D01*
X492252Y140405D02*
Y141586D01*
X485756Y129185D02*
X486937D01*
X486346Y128594D02*
Y129775D01*
X491661Y117374D02*
X492842D01*
X492252Y116783D02*
Y117964D01*
X485756Y105563D02*
X486937D01*
X486346Y104972D02*
Y106153D01*
X485756Y81941D02*
X486937D01*
X486346Y81350D02*
Y82531D01*
X485756Y58319D02*
X486937D01*
X486346Y57728D02*
Y58909D01*
X473945Y341783D02*
X475126D01*
X474535Y341193D02*
Y342374D01*
X479850Y329972D02*
X481031D01*
X480441Y329382D02*
Y330563D01*
X473945Y318161D02*
X475126D01*
X474535Y317571D02*
Y318752D01*
X479850Y306350D02*
X481031D01*
X480441Y305760D02*
Y306941D01*
X473945Y294539D02*
X475126D01*
X474535Y293949D02*
Y295130D01*
X479850Y282728D02*
X481031D01*
X480441Y282137D02*
Y283319D01*
X479850Y235484D02*
X481031D01*
X480441Y234893D02*
Y236074D01*
X473945Y200051D02*
X475126D01*
X474535Y199460D02*
Y200641D01*
X479850Y188240D02*
X481031D01*
X480441Y187649D02*
Y188830D01*
X473945Y176429D02*
X475126D01*
X474535Y175838D02*
Y177020D01*
X473945Y152807D02*
X475126D01*
X474535Y152216D02*
Y153397D01*
X479850Y140996D02*
X481031D01*
X480441Y140405D02*
Y141586D01*
X473945Y129185D02*
X475126D01*
X474535Y128594D02*
Y129775D01*
X479850Y117374D02*
X481031D01*
X480441Y116783D02*
Y117964D01*
X473945Y105563D02*
X475126D01*
X474535Y104972D02*
Y106153D01*
X473945Y58319D02*
X475126D01*
X474535Y57728D02*
Y58909D01*
X479850Y46508D02*
X481031D01*
X480441Y45917D02*
Y47098D01*
X473945Y34697D02*
X475126D01*
X474535Y34106D02*
Y35287D01*
X462134Y341783D02*
X463315D01*
X462724Y341193D02*
Y342374D01*
X468039Y329972D02*
X469220D01*
X468630Y329382D02*
Y330563D01*
X462134Y318161D02*
X463315D01*
X462724Y317571D02*
Y318752D01*
X468039Y306350D02*
X469220D01*
X468630Y305760D02*
Y306941D01*
X462134Y294539D02*
X463315D01*
X462724Y293949D02*
Y295130D01*
X468039Y282728D02*
X469220D01*
X468630Y282137D02*
Y283319D01*
X468039Y235484D02*
X469220D01*
X468630Y234893D02*
Y236074D01*
X468039Y211862D02*
X469220D01*
X468630Y211271D02*
Y212453D01*
X462134Y200051D02*
X463315D01*
X462724Y199460D02*
Y200641D01*
X468039Y188240D02*
X469220D01*
X468630Y187649D02*
Y188830D01*
X462134Y176429D02*
X463315D01*
X462724Y175838D02*
Y177020D01*
X462134Y152807D02*
X463315D01*
X462724Y152216D02*
Y153397D01*
X468039Y140996D02*
X469220D01*
X468630Y140405D02*
Y141586D01*
X462134Y129185D02*
X463315D01*
X462724Y128594D02*
Y129775D01*
X468039Y117374D02*
X469220D01*
X468630Y116783D02*
Y117964D01*
X462134Y105563D02*
X463315D01*
X462724Y104972D02*
Y106153D01*
X462134Y58319D02*
X463315D01*
X462724Y57728D02*
Y58909D01*
X468039Y46508D02*
X469220D01*
X468630Y45917D02*
Y47098D01*
X456228Y329972D02*
X457409D01*
X456819Y329382D02*
Y330563D01*
X456228Y306350D02*
X457409D01*
X456819Y305760D02*
Y306941D01*
X456228Y282728D02*
X457409D01*
X456819Y282137D02*
Y283319D01*
X456228Y235484D02*
X457409D01*
X456819Y234893D02*
Y236074D01*
X456228Y211862D02*
X457409D01*
X456819Y211271D02*
Y212453D01*
X450323Y200051D02*
X451504D01*
X450913Y199460D02*
Y200641D01*
X456228Y188240D02*
X457409D01*
X456819Y187649D02*
Y188830D01*
X450323Y176429D02*
X451504D01*
X450913Y175838D02*
Y177020D01*
X450323Y152807D02*
X451504D01*
X450913Y152216D02*
Y153397D01*
X456228Y117374D02*
X457409D01*
X456819Y116783D02*
Y117964D01*
X450323Y105563D02*
X451504D01*
X450913Y104972D02*
Y106153D01*
X450323Y58319D02*
X451504D01*
X450913Y57728D02*
Y58909D01*
X450323Y34697D02*
X451504D01*
X450913Y34106D02*
Y35287D01*
X438512Y318161D02*
X439693D01*
X439102Y317571D02*
Y318752D01*
X444417Y306350D02*
X445598D01*
X445008Y305760D02*
Y306941D01*
X444417Y211862D02*
X445598D01*
X445008Y211271D02*
Y212453D01*
X438512Y152807D02*
X439693D01*
X439102Y152216D02*
Y153397D01*
X444417Y46508D02*
X445598D01*
X445008Y45917D02*
Y47098D01*
X426701Y318161D02*
X427882D01*
X427291Y317571D02*
Y318752D01*
X426701Y152807D02*
X427882D01*
X427291Y152216D02*
Y153397D01*
X414889Y176429D02*
X416071D01*
X415480Y175838D02*
Y177020D01*
X379456Y341783D02*
X380638D01*
X380047Y341193D02*
Y342374D01*
X379456Y176429D02*
X380638D01*
X380047Y175838D02*
Y177020D01*
X379456Y34697D02*
X380638D01*
X380047Y34106D02*
Y35287D01*
X373551Y140996D02*
X374732D01*
X374142Y140405D02*
Y141586D01*
X361740Y164618D02*
X362921D01*
X362331Y164027D02*
Y165208D01*
X332212Y223673D02*
X333394D01*
X332803Y223082D02*
Y224264D01*
X350287Y458343D02*
X353087D01*
X351687Y456943D02*
Y459743D01*
X74331Y448837D02*
X77131D01*
X75731Y447437D02*
Y450237D01*
X323700Y68600D02*
X326500D01*
X325100Y67200D02*
Y70000D01*
X328100Y35700D02*
X330900D01*
X329500Y34300D02*
Y37100D01*
X364537Y475313D02*
X367337D01*
X365937Y473913D02*
Y476713D01*
X364600Y482100D02*
X367400D01*
X366000Y480700D02*
Y483500D01*
X364800Y489000D02*
X367600D01*
X366200Y487600D02*
Y490400D01*
X364437Y468200D02*
X367237D01*
X365837Y466800D02*
Y469600D01*
X382244Y276476D02*
X385044D01*
X383644Y275076D02*
Y277876D01*
X741498Y259111D02*
X742680D01*
X742089Y258521D02*
Y259702D01*
X741498Y235489D02*
X742680D01*
X742089Y234898D02*
Y236080D01*
X439300Y103300D02*
X442100D01*
X440700Y101900D02*
Y104700D01*
X412970Y103200D02*
X415770D01*
X414370Y101800D02*
Y104600D01*
X422500Y103200D02*
X425300D01*
X423900Y101800D02*
Y104600D01*
X430800Y103200D02*
X433600D01*
X432200Y101800D02*
Y104600D01*
X450000Y223600D02*
X452800D01*
X451400Y222200D02*
Y225000D01*
X450000Y231200D02*
X452800D01*
X451400Y229800D02*
Y232600D01*
X437800Y282300D02*
X440600D01*
X439200Y280900D02*
Y283700D01*
X429900Y282300D02*
X432700D01*
X431300Y280900D02*
Y283700D01*
X445300Y282300D02*
X448100D01*
X446700Y280900D02*
Y283700D01*
X445300Y296374D02*
X448100D01*
X446700Y294974D02*
Y297774D01*
X437800Y296374D02*
X440600D01*
X439200Y294974D02*
Y297774D01*
X429900Y296374D02*
X432700D01*
X431300Y294974D02*
Y297774D01*
X376900Y267400D02*
X379700D01*
X378300Y266000D02*
Y268800D01*
X412300Y296200D02*
X415100D01*
X413700Y294800D02*
Y297600D01*
X316600Y206600D02*
X319400D01*
X318000Y205200D02*
Y208000D01*
X316600Y215200D02*
X319400D01*
X318000Y213800D02*
Y216600D01*
X317600Y176900D02*
X320400D01*
X319000Y175500D02*
Y178300D01*
X317600Y184900D02*
X320400D01*
X319000Y183500D02*
Y186300D01*
X317600Y169400D02*
X320400D01*
X319000Y168000D02*
Y170800D01*
X326100Y165400D02*
X328900D01*
X327500Y164000D02*
Y166800D01*
X335300Y165400D02*
X338100D01*
X336700Y164000D02*
Y166800D01*
X339800Y455000D02*
X342600D01*
X341200Y453600D02*
Y456400D01*
X334700Y439300D02*
X337500D01*
X336100Y437900D02*
Y440700D01*
X337300Y36000D02*
X340100D01*
X338700Y34600D02*
Y37400D01*
X356800Y36000D02*
X359600D01*
X358200Y34600D02*
Y37400D01*
X346957Y36000D02*
X349758D01*
X348358Y34600D02*
Y37400D01*
X366100Y36000D02*
X368900D01*
X367500Y34600D02*
Y37400D01*
X333300Y68800D02*
X336100D01*
X334700Y67400D02*
Y70200D01*
X450000Y239200D02*
X452800D01*
X451400Y237800D02*
Y240600D01*
X332600Y322800D02*
X335400D01*
X334000Y321400D02*
Y324200D01*
X324500Y322800D02*
X327300D01*
X325900Y321400D02*
Y324200D01*
X328300Y350500D02*
X331100D01*
X329700Y349100D02*
Y351900D01*
X335800Y350500D02*
X338600D01*
X337200Y349100D02*
Y351900D01*
X343200Y350500D02*
X346000D01*
X344600Y349100D02*
Y351900D01*
X350900Y350500D02*
X353700D01*
X352300Y349100D02*
Y351900D01*
X358400Y350500D02*
X361200D01*
X359800Y349100D02*
Y351900D01*
X366400Y350500D02*
X369200D01*
X367800Y349100D02*
Y351900D01*
X333246Y78740D02*
X336046D01*
X334646Y77340D02*
Y80140D01*
X333200Y88100D02*
X336000D01*
X334600Y86700D02*
Y89500D01*
X323358Y88100D02*
X326157D01*
X324758Y86700D02*
Y89500D01*
X323403Y78740D02*
X326203D01*
X324803Y77340D02*
Y80140D01*
X658049Y255906D02*
X660849D01*
X659449Y254505D02*
Y257306D01*
X658049Y246063D02*
X660849D01*
X659449Y244663D02*
Y247463D01*
X648206Y255906D02*
X651006D01*
X649606Y254505D02*
Y257306D01*
X648206Y246063D02*
X651006D01*
X649606Y244663D02*
Y247463D01*
X667891Y236221D02*
X670691D01*
X669291Y234821D02*
Y237620D01*
X658049Y236221D02*
X660849D01*
X659449Y234821D02*
Y237620D01*
X648206Y236221D02*
X651006D01*
X649606Y234821D02*
Y237620D01*
X667891Y226378D02*
X670691D01*
X669291Y224978D02*
Y227778D01*
X658049Y226378D02*
X660849D01*
X659449Y224978D02*
Y227778D01*
X648206Y226378D02*
X651006D01*
X649606Y224978D02*
Y227778D01*
X677734Y49213D02*
X680534D01*
X679134Y47813D02*
Y50613D01*
X667891Y49213D02*
X670691D01*
X669291Y47813D02*
Y50613D01*
X658049Y49213D02*
X660849D01*
X659449Y47813D02*
Y50613D01*
X658049Y39370D02*
X660849D01*
X659449Y37970D02*
Y40770D01*
X667891Y39370D02*
X670691D01*
X669291Y37970D02*
Y40770D01*
X677734Y39370D02*
X680534D01*
X679134Y37970D02*
Y40770D01*
X677734Y29528D02*
X680534D01*
X679134Y28128D02*
Y30928D01*
X667891Y29528D02*
X670691D01*
X669291Y28128D02*
Y30928D01*
X658049Y29528D02*
X660849D01*
X659449Y28128D02*
Y30928D01*
X764037Y243963D02*
X766837D01*
X765437Y242563D02*
Y245363D01*
X682000Y255906D02*
X684800D01*
X683400Y254505D02*
Y257306D01*
X674100Y255906D02*
X676900D01*
X675500Y254505D02*
Y257306D01*
X666200Y246063D02*
X669000D01*
X667600Y244663D02*
Y247463D01*
X666100Y255906D02*
X668900D01*
X667500Y254505D02*
Y257306D01*
X334230Y228346D02*
X337030D01*
X335630Y226946D02*
Y229747D01*
X327340Y228346D02*
X330140D01*
X328740Y226946D02*
Y229747D01*
X320450Y228346D02*
X323250D01*
X321850Y226946D02*
Y229747D01*
X333246Y145669D02*
X336046D01*
X334646Y144269D02*
Y147069D01*
X333246Y153543D02*
X336046D01*
X334646Y152143D02*
Y154943D01*
X315529Y125000D02*
X318329D01*
X316929Y123600D02*
Y126400D01*
X315529Y131890D02*
X318329D01*
X316929Y130490D02*
Y133290D01*
X315529Y138779D02*
X318329D01*
X316929Y137380D02*
Y140180D01*
X315529Y145669D02*
X318329D01*
X316929Y144269D02*
Y147069D01*
X315529Y153543D02*
X318329D01*
X316929Y152143D02*
Y154943D01*
X334230Y237205D02*
X337030D01*
X335630Y235805D02*
Y238605D01*
X327340Y237205D02*
X330140D01*
X328740Y235805D02*
Y238605D01*
X320450Y237205D02*
X323250D01*
X321850Y235805D02*
Y238605D01*
X320450Y244094D02*
X323250D01*
X321850Y242694D02*
Y245495D01*
X327340Y244094D02*
X330140D01*
X328740Y242694D02*
Y245495D01*
X319466Y288386D02*
X322266D01*
X320866Y286986D02*
Y289786D01*
X319466Y295276D02*
X322266D01*
X320866Y293876D02*
Y296676D01*
X322419Y303150D02*
X325219D01*
X323819Y301750D02*
Y304550D01*
X322419Y310039D02*
X325219D01*
X323819Y308639D02*
Y311439D01*
X335900Y303310D02*
X338700D01*
X337300Y301910D02*
Y304710D01*
X335900Y310200D02*
X338700D01*
X337300Y308800D02*
Y311600D01*
X329309Y303150D02*
X332109D01*
X330709Y301750D02*
Y304550D01*
X329309Y310039D02*
X332109D01*
X330709Y308639D02*
Y311439D01*
X333900Y243874D02*
X336700D01*
X335300Y242474D02*
Y245274D01*
X374531Y112343D02*
X377331D01*
X375931Y110943D02*
Y113743D01*
X491661Y58319D02*
X492842D01*
X492252Y57728D02*
Y58909D01*
X473945Y46508D02*
X475126D01*
X474535Y45917D02*
Y47098D01*
X479850Y34697D02*
X481031D01*
X480441Y34106D02*
Y35287D01*
X296779Y377216D02*
X297960D01*
X297370Y376626D02*
Y377807D01*
X302685Y365405D02*
X303866D01*
X303275Y364815D02*
Y365996D01*
X296779Y353594D02*
X297960D01*
X297370Y353004D02*
Y354185D01*
X302685Y341783D02*
X303866D01*
X303275Y341193D02*
Y342374D01*
X296779Y329972D02*
X297960D01*
X297370Y329382D02*
Y330563D01*
X302685Y318161D02*
X303866D01*
X303275Y317571D02*
Y318752D01*
X296779Y306350D02*
X297960D01*
X297370Y305760D02*
Y306941D01*
X302685Y294539D02*
X303866D01*
X303275Y293949D02*
Y295130D01*
X296779Y282728D02*
X297960D01*
X297370Y282137D02*
Y283319D01*
X302685Y270917D02*
X303866D01*
X303275Y270326D02*
Y271508D01*
X296779Y259106D02*
X297960D01*
X297370Y258516D02*
Y259697D01*
X302685Y247295D02*
X303866D01*
X303275Y246705D02*
Y247886D01*
X296779Y235484D02*
X297960D01*
X297370Y234893D02*
Y236074D01*
X302685Y223673D02*
X303866D01*
X303275Y223082D02*
Y224264D01*
X296779Y211862D02*
X297960D01*
X297370Y211271D02*
Y212453D01*
X302685Y200051D02*
X303866D01*
X303275Y199460D02*
Y200641D01*
X296779Y188240D02*
X297960D01*
X297370Y187649D02*
Y188830D01*
X302685Y176429D02*
X303866D01*
X303275Y175838D02*
Y177020D01*
X296779Y164618D02*
X297960D01*
X297370Y164027D02*
Y165208D01*
X302685Y152807D02*
X303866D01*
X303275Y152216D02*
Y153397D01*
X296779Y140996D02*
X297960D01*
X297370Y140405D02*
Y141586D01*
X302685Y129185D02*
X303866D01*
X303275Y128594D02*
Y129775D01*
X296779Y117374D02*
X297960D01*
X297370Y116783D02*
Y117964D01*
X302685Y105563D02*
X303866D01*
X303275Y104972D02*
Y106153D01*
X296779Y93752D02*
X297960D01*
X297370Y93161D02*
Y94342D01*
X302685Y81941D02*
X303866D01*
X303275Y81350D02*
Y82531D01*
X296779Y70130D02*
X297960D01*
X297370Y69539D02*
Y70720D01*
X302685Y58319D02*
X303866D01*
X303275Y57728D02*
Y58909D01*
X296779Y46508D02*
X297960D01*
X297370Y45917D02*
Y47098D01*
X284968Y377216D02*
X286149D01*
X285559Y376626D02*
Y377807D01*
X290874Y365405D02*
X292055D01*
X291464Y364815D02*
Y365996D01*
X284968Y353594D02*
X286149D01*
X285559Y353004D02*
Y354185D01*
X290874Y341783D02*
X292055D01*
X291464Y341193D02*
Y342374D01*
X284968Y329972D02*
X286149D01*
X285559Y329382D02*
Y330563D01*
X290874Y318161D02*
X292055D01*
X291464Y317571D02*
Y318752D01*
X284968Y306350D02*
X286149D01*
X285559Y305760D02*
Y306941D01*
X290874Y294539D02*
X292055D01*
X291464Y293949D02*
Y295130D01*
X284968Y282728D02*
X286149D01*
X285559Y282137D02*
Y283319D01*
X290874Y270917D02*
X292055D01*
X291464Y270326D02*
Y271508D01*
X284968Y259106D02*
X286149D01*
X285559Y258516D02*
Y259697D01*
X290874Y247295D02*
X292055D01*
X291464Y246705D02*
Y247886D01*
X284968Y235484D02*
X286149D01*
X285559Y234893D02*
Y236074D01*
X290874Y223673D02*
X292055D01*
X291464Y223082D02*
Y224264D01*
X284968Y211862D02*
X286149D01*
X285559Y211271D02*
Y212453D01*
X290874Y200051D02*
X292055D01*
X291464Y199460D02*
Y200641D01*
X284968Y188240D02*
X286149D01*
X285559Y187649D02*
Y188830D01*
X290874Y176429D02*
X292055D01*
X291464Y175838D02*
Y177020D01*
X284968Y164618D02*
X286149D01*
X285559Y164027D02*
Y165208D01*
X290874Y152807D02*
X292055D01*
X291464Y152216D02*
Y153397D01*
X284968Y140996D02*
X286149D01*
X285559Y140405D02*
Y141586D01*
X290874Y129185D02*
X292055D01*
X291464Y128594D02*
Y129775D01*
X284968Y117374D02*
X286149D01*
X285559Y116783D02*
Y117964D01*
X290874Y105563D02*
X292055D01*
X291464Y104972D02*
Y106153D01*
X284968Y93752D02*
X286149D01*
X285559Y93161D02*
Y94342D01*
X290874Y81941D02*
X292055D01*
X291464Y81350D02*
Y82531D01*
X284968Y70130D02*
X286149D01*
X285559Y69539D02*
Y70720D01*
X290874Y58319D02*
X292055D01*
X291464Y57728D02*
Y58909D01*
X284968Y46508D02*
X286149D01*
X285559Y45917D02*
Y47098D01*
X273157Y377216D02*
X274338D01*
X273748Y376626D02*
Y377807D01*
X279063Y365405D02*
X280244D01*
X279653Y364815D02*
Y365996D01*
X273157Y353594D02*
X274338D01*
X273748Y353004D02*
Y354185D01*
X279063Y341783D02*
X280244D01*
X279653Y341193D02*
Y342374D01*
X273157Y329972D02*
X274338D01*
X273748Y329382D02*
Y330563D01*
X279063Y318161D02*
X280244D01*
X279653Y317571D02*
Y318752D01*
X273157Y306350D02*
X274338D01*
X273748Y305760D02*
Y306941D01*
X279063Y294539D02*
X280244D01*
X279653Y293949D02*
Y295130D01*
X273157Y282728D02*
X274338D01*
X273748Y282137D02*
Y283319D01*
X279063Y270917D02*
X280244D01*
X279653Y270326D02*
Y271508D01*
X273157Y259106D02*
X274338D01*
X273748Y258516D02*
Y259697D01*
X279063Y247295D02*
X280244D01*
X279653Y246705D02*
Y247886D01*
X273157Y235484D02*
X274338D01*
X273748Y234893D02*
Y236074D01*
X279063Y223673D02*
X280244D01*
X279653Y223082D02*
Y224264D01*
X273157Y211862D02*
X274338D01*
X273748Y211271D02*
Y212453D01*
X279063Y200051D02*
X280244D01*
X279653Y199460D02*
Y200641D01*
X273157Y188240D02*
X274338D01*
X273748Y187649D02*
Y188830D01*
X279063Y176429D02*
X280244D01*
X279653Y175838D02*
Y177020D01*
X273157Y164618D02*
X274338D01*
X273748Y164027D02*
Y165208D01*
X279063Y152807D02*
X280244D01*
X279653Y152216D02*
Y153397D01*
X273157Y140996D02*
X274338D01*
X273748Y140405D02*
Y141586D01*
X279063Y129185D02*
X280244D01*
X279653Y128594D02*
Y129775D01*
X273157Y117374D02*
X274338D01*
X273748Y116783D02*
Y117964D01*
X279063Y105563D02*
X280244D01*
X279653Y104972D02*
Y106153D01*
X273157Y93752D02*
X274338D01*
X273748Y93161D02*
Y94342D01*
X279063Y81941D02*
X280244D01*
X279653Y81350D02*
Y82531D01*
X273157Y70130D02*
X274338D01*
X273748Y69539D02*
Y70720D01*
X279063Y58319D02*
X280244D01*
X279653Y57728D02*
Y58909D01*
X273157Y46508D02*
X274338D01*
X273748Y45917D02*
Y47098D01*
X261346Y377216D02*
X262527D01*
X261937Y376626D02*
Y377807D01*
X267252Y365405D02*
X268433D01*
X267842Y364815D02*
Y365996D01*
X261346Y353594D02*
X262527D01*
X261937Y353004D02*
Y354185D01*
X267252Y341783D02*
X268433D01*
X267842Y341193D02*
Y342374D01*
X261346Y329972D02*
X262527D01*
X261937Y329382D02*
Y330563D01*
X267252Y318161D02*
X268433D01*
X267842Y317571D02*
Y318752D01*
X261346Y306350D02*
X262527D01*
X261937Y305760D02*
Y306941D01*
X267252Y294539D02*
X268433D01*
X267842Y293949D02*
Y295130D01*
X261346Y282728D02*
X262527D01*
X261937Y282137D02*
Y283319D01*
X267252Y270917D02*
X268433D01*
X267842Y270326D02*
Y271508D01*
X261346Y259106D02*
X262527D01*
X261937Y258516D02*
Y259697D01*
X267252Y247295D02*
X268433D01*
X267842Y246705D02*
Y247886D01*
X261346Y235484D02*
X262527D01*
X261937Y234893D02*
Y236074D01*
X267252Y223673D02*
X268433D01*
X267842Y223082D02*
Y224264D01*
X261346Y211862D02*
X262527D01*
X261937Y211271D02*
Y212453D01*
X267252Y200051D02*
X268433D01*
X267842Y199460D02*
Y200641D01*
X261346Y188240D02*
X262527D01*
X261937Y187649D02*
Y188830D01*
X267252Y176429D02*
X268433D01*
X267842Y175838D02*
Y177020D01*
X261346Y164618D02*
X262527D01*
X261937Y164027D02*
Y165208D01*
X267252Y152807D02*
X268433D01*
X267842Y152216D02*
Y153397D01*
X261346Y140996D02*
X262527D01*
X261937Y140405D02*
Y141586D01*
X267252Y129185D02*
X268433D01*
X267842Y128594D02*
Y129775D01*
X261346Y117374D02*
X262527D01*
X261937Y116783D02*
Y117964D01*
X267252Y105563D02*
X268433D01*
X267842Y104972D02*
Y106153D01*
X261346Y93752D02*
X262527D01*
X261937Y93161D02*
Y94342D01*
X267252Y81941D02*
X268433D01*
X267842Y81350D02*
Y82531D01*
X261346Y70130D02*
X262527D01*
X261937Y69539D02*
Y70720D01*
X267252Y58319D02*
X268433D01*
X267842Y57728D02*
Y58909D01*
X261346Y46508D02*
X262527D01*
X261937Y45917D02*
Y47098D01*
X249535Y377216D02*
X250716D01*
X250126Y376626D02*
Y377807D01*
X255441Y365405D02*
X256622D01*
X256031Y364815D02*
Y365996D01*
X249535Y353594D02*
X250716D01*
X250126Y353004D02*
Y354185D01*
X255441Y341783D02*
X256622D01*
X256031Y341193D02*
Y342374D01*
X249535Y329972D02*
X250716D01*
X250126Y329382D02*
Y330563D01*
X255441Y318161D02*
X256622D01*
X256031Y317571D02*
Y318752D01*
X249535Y306350D02*
X250716D01*
X250126Y305760D02*
Y306941D01*
X255441Y294539D02*
X256622D01*
X256031Y293949D02*
Y295130D01*
X249535Y282728D02*
X250716D01*
X250126Y282137D02*
Y283319D01*
X255441Y270917D02*
X256622D01*
X256031Y270326D02*
Y271508D01*
X249535Y259106D02*
X250716D01*
X250126Y258516D02*
Y259697D01*
X255441Y247295D02*
X256622D01*
X256031Y246705D02*
Y247886D01*
X249535Y235484D02*
X250716D01*
X250126Y234893D02*
Y236074D01*
X255441Y223673D02*
X256622D01*
X256031Y223082D02*
Y224264D01*
X249535Y211862D02*
X250716D01*
X250126Y211271D02*
Y212453D01*
X255441Y200051D02*
X256622D01*
X256031Y199460D02*
Y200641D01*
X249535Y188240D02*
X250716D01*
X250126Y187649D02*
Y188830D01*
X255441Y176429D02*
X256622D01*
X256031Y175838D02*
Y177020D01*
X249535Y164618D02*
X250716D01*
X250126Y164027D02*
Y165208D01*
X255441Y152807D02*
X256622D01*
X256031Y152216D02*
Y153397D01*
X249535Y140996D02*
X250716D01*
X250126Y140405D02*
Y141586D01*
X255441Y129185D02*
X256622D01*
X256031Y128594D02*
Y129775D01*
X249535Y117374D02*
X250716D01*
X250126Y116783D02*
Y117964D01*
X255441Y105563D02*
X256622D01*
X256031Y104972D02*
Y106153D01*
X249535Y93752D02*
X250716D01*
X250126Y93161D02*
Y94342D01*
X255441Y81941D02*
X256622D01*
X256031Y81350D02*
Y82531D01*
X249535Y70130D02*
X250716D01*
X250126Y69539D02*
Y70720D01*
X255441Y58319D02*
X256622D01*
X256031Y57728D02*
Y58909D01*
X249535Y46508D02*
X250716D01*
X250126Y45917D02*
Y47098D01*
X237724Y377216D02*
X238905D01*
X238315Y376626D02*
Y377807D01*
X243630Y365405D02*
X244811D01*
X244220Y364815D02*
Y365996D01*
X237724Y353594D02*
X238905D01*
X238315Y353004D02*
Y354185D01*
X243630Y341783D02*
X244811D01*
X244220Y341193D02*
Y342374D01*
X237724Y329972D02*
X238905D01*
X238315Y329382D02*
Y330563D01*
X243630Y318161D02*
X244811D01*
X244220Y317571D02*
Y318752D01*
X237724Y306350D02*
X238905D01*
X238315Y305760D02*
Y306941D01*
X243630Y294539D02*
X244811D01*
X244220Y293949D02*
Y295130D01*
X237724Y282728D02*
X238905D01*
X238315Y282137D02*
Y283319D01*
X243630Y270917D02*
X244811D01*
X244220Y270326D02*
Y271508D01*
X237724Y259106D02*
X238905D01*
X238315Y258516D02*
Y259697D01*
X243630Y247295D02*
X244811D01*
X244220Y246705D02*
Y247886D01*
X237724Y235484D02*
X238905D01*
X238315Y234893D02*
Y236074D01*
X243630Y223673D02*
X244811D01*
X244220Y223082D02*
Y224264D01*
X237724Y211862D02*
X238905D01*
X238315Y211271D02*
Y212453D01*
X243630Y200051D02*
X244811D01*
X244220Y199460D02*
Y200641D01*
X237724Y188240D02*
X238905D01*
X238315Y187649D02*
Y188830D01*
X243630Y176429D02*
X244811D01*
X244220Y175838D02*
Y177020D01*
X237724Y164618D02*
X238905D01*
X238315Y164027D02*
Y165208D01*
X243630Y152807D02*
X244811D01*
X244220Y152216D02*
Y153397D01*
X237724Y140996D02*
X238905D01*
X238315Y140405D02*
Y141586D01*
X243630Y129185D02*
X244811D01*
X244220Y128594D02*
Y129775D01*
X237724Y117374D02*
X238905D01*
X238315Y116783D02*
Y117964D01*
X243630Y105563D02*
X244811D01*
X244220Y104972D02*
Y106153D01*
X237724Y93752D02*
X238905D01*
X238315Y93161D02*
Y94342D01*
X243630Y81941D02*
X244811D01*
X244220Y81350D02*
Y82531D01*
X237724Y70130D02*
X238905D01*
X238315Y69539D02*
Y70720D01*
X243630Y58319D02*
X244811D01*
X244220Y57728D02*
Y58909D01*
X237724Y46508D02*
X238905D01*
X238315Y45917D02*
Y47098D01*
X225913Y377216D02*
X227094D01*
X226504Y376626D02*
Y377807D01*
X231819Y365405D02*
X233000D01*
X232409Y364815D02*
Y365996D01*
X225913Y353594D02*
X227094D01*
X226504Y353004D02*
Y354185D01*
X231819Y341783D02*
X233000D01*
X232409Y341193D02*
Y342374D01*
X225913Y329972D02*
X227094D01*
X226504Y329382D02*
Y330563D01*
X231819Y318161D02*
X233000D01*
X232409Y317571D02*
Y318752D01*
X225913Y306350D02*
X227094D01*
X226504Y305760D02*
Y306941D01*
X231819Y294539D02*
X233000D01*
X232409Y293949D02*
Y295130D01*
X225913Y282728D02*
X227094D01*
X226504Y282137D02*
Y283319D01*
X231819Y270917D02*
X233000D01*
X232409Y270326D02*
Y271508D01*
X225913Y259106D02*
X227094D01*
X226504Y258516D02*
Y259697D01*
X231819Y247295D02*
X233000D01*
X232409Y246705D02*
Y247886D01*
X225913Y235484D02*
X227094D01*
X226504Y234893D02*
Y236074D01*
X231819Y223673D02*
X233000D01*
X232409Y223082D02*
Y224264D01*
X225913Y211862D02*
X227094D01*
X226504Y211271D02*
Y212453D01*
X231819Y200051D02*
X233000D01*
X232409Y199460D02*
Y200641D01*
X225913Y188240D02*
X227094D01*
X226504Y187649D02*
Y188830D01*
X231819Y176429D02*
X233000D01*
X232409Y175838D02*
Y177020D01*
X225913Y164618D02*
X227094D01*
X226504Y164027D02*
Y165208D01*
X231819Y152807D02*
X233000D01*
X232409Y152216D02*
Y153397D01*
X225913Y140996D02*
X227094D01*
X226504Y140405D02*
Y141586D01*
X231819Y129185D02*
X233000D01*
X232409Y128594D02*
Y129775D01*
X225913Y117374D02*
X227094D01*
X226504Y116783D02*
Y117964D01*
X231819Y105563D02*
X233000D01*
X232409Y104972D02*
Y106153D01*
X225913Y93752D02*
X227094D01*
X226504Y93161D02*
Y94342D01*
X231819Y81941D02*
X233000D01*
X232409Y81350D02*
Y82531D01*
X225913Y70130D02*
X227094D01*
X226504Y69539D02*
Y70720D01*
X231819Y58319D02*
X233000D01*
X232409Y57728D02*
Y58909D01*
X225913Y46508D02*
X227094D01*
X226504Y45917D02*
Y47098D01*
X214102Y377216D02*
X215283D01*
X214693Y376626D02*
Y377807D01*
X220008Y365405D02*
X221189D01*
X220598Y364815D02*
Y365996D01*
X214102Y353594D02*
X215283D01*
X214693Y353004D02*
Y354185D01*
X220008Y341783D02*
X221189D01*
X220598Y341193D02*
Y342374D01*
X214102Y329972D02*
X215283D01*
X214693Y329382D02*
Y330563D01*
X220008Y318161D02*
X221189D01*
X220598Y317571D02*
Y318752D01*
X214102Y306350D02*
X215283D01*
X214693Y305760D02*
Y306941D01*
X220008Y294539D02*
X221189D01*
X220598Y293949D02*
Y295130D01*
X214102Y282728D02*
X215283D01*
X214693Y282137D02*
Y283319D01*
X220008Y270917D02*
X221189D01*
X220598Y270326D02*
Y271508D01*
X214102Y259106D02*
X215283D01*
X214693Y258516D02*
Y259697D01*
X220008Y247295D02*
X221189D01*
X220598Y246705D02*
Y247886D01*
X214102Y235484D02*
X215283D01*
X214693Y234893D02*
Y236074D01*
X220008Y223673D02*
X221189D01*
X220598Y223082D02*
Y224264D01*
X214102Y211862D02*
X215283D01*
X214693Y211271D02*
Y212453D01*
X220008Y200051D02*
X221189D01*
X220598Y199460D02*
Y200641D01*
X214102Y188240D02*
X215283D01*
X214693Y187649D02*
Y188830D01*
X220008Y176429D02*
X221189D01*
X220598Y175838D02*
Y177020D01*
X214102Y164618D02*
X215283D01*
X214693Y164027D02*
Y165208D01*
X220008Y152807D02*
X221189D01*
X220598Y152216D02*
Y153397D01*
X214102Y140996D02*
X215283D01*
X214693Y140405D02*
Y141586D01*
X220008Y129185D02*
X221189D01*
X220598Y128594D02*
Y129775D01*
X214102Y117374D02*
X215283D01*
X214693Y116783D02*
Y117964D01*
X220008Y105563D02*
X221189D01*
X220598Y104972D02*
Y106153D01*
X214102Y93752D02*
X215283D01*
X214693Y93161D02*
Y94342D01*
X220008Y81941D02*
X221189D01*
X220598Y81350D02*
Y82531D01*
X214102Y70130D02*
X215283D01*
X214693Y69539D02*
Y70720D01*
X220008Y58319D02*
X221189D01*
X220598Y57728D02*
Y58909D01*
X214102Y46508D02*
X215283D01*
X214693Y45917D02*
Y47098D01*
X202291Y377216D02*
X203472D01*
X202882Y376626D02*
Y377807D01*
X208197Y365405D02*
X209378D01*
X208787Y364815D02*
Y365996D01*
X202291Y353594D02*
X203472D01*
X202882Y353004D02*
Y354185D01*
X208197Y341783D02*
X209378D01*
X208787Y341193D02*
Y342374D01*
X202291Y329972D02*
X203472D01*
X202882Y329382D02*
Y330563D01*
X208197Y318161D02*
X209378D01*
X208787Y317571D02*
Y318752D01*
X202291Y306350D02*
X203472D01*
X202882Y305760D02*
Y306941D01*
X208197Y294539D02*
X209378D01*
X208787Y293949D02*
Y295130D01*
X202291Y282728D02*
X203472D01*
X202882Y282137D02*
Y283319D01*
X208197Y270917D02*
X209378D01*
X208787Y270326D02*
Y271508D01*
X202291Y259106D02*
X203472D01*
X202882Y258516D02*
Y259697D01*
X208197Y247295D02*
X209378D01*
X208787Y246705D02*
Y247886D01*
X202291Y235484D02*
X203472D01*
X202882Y234893D02*
Y236074D01*
X208197Y223673D02*
X209378D01*
X208787Y223082D02*
Y224264D01*
X202291Y211862D02*
X203472D01*
X202882Y211271D02*
Y212453D01*
X208197Y200051D02*
X209378D01*
X208787Y199460D02*
Y200641D01*
X202291Y188240D02*
X203472D01*
X202882Y187649D02*
Y188830D01*
X208197Y176429D02*
X209378D01*
X208787Y175838D02*
Y177020D01*
X202291Y164618D02*
X203472D01*
X202882Y164027D02*
Y165208D01*
X208197Y152807D02*
X209378D01*
X208787Y152216D02*
Y153397D01*
X202291Y140996D02*
X203472D01*
X202882Y140405D02*
Y141586D01*
X208197Y129185D02*
X209378D01*
X208787Y128594D02*
Y129775D01*
X202291Y117374D02*
X203472D01*
X202882Y116783D02*
Y117964D01*
X208197Y105563D02*
X209378D01*
X208787Y104972D02*
Y106153D01*
X202291Y93752D02*
X203472D01*
X202882Y93161D02*
Y94342D01*
X208197Y81941D02*
X209378D01*
X208787Y81350D02*
Y82531D01*
X202291Y70130D02*
X203472D01*
X202882Y69539D02*
Y70720D01*
X208197Y58319D02*
X209378D01*
X208787Y57728D02*
Y58909D01*
X202291Y46508D02*
X203472D01*
X202882Y45917D02*
Y47098D01*
X190480Y377216D02*
X191661D01*
X191071Y376626D02*
Y377807D01*
X196386Y365405D02*
X197567D01*
X196976Y364815D02*
Y365996D01*
X190480Y353594D02*
X191661D01*
X191071Y353004D02*
Y354185D01*
X196386Y341783D02*
X197567D01*
X196976Y341193D02*
Y342374D01*
X190480Y329972D02*
X191661D01*
X191071Y329382D02*
Y330563D01*
X196386Y318161D02*
X197567D01*
X196976Y317571D02*
Y318752D01*
X190480Y306350D02*
X191661D01*
X191071Y305760D02*
Y306941D01*
X196386Y294539D02*
X197567D01*
X196976Y293949D02*
Y295130D01*
X190480Y282728D02*
X191661D01*
X191071Y282137D02*
Y283319D01*
X196386Y270917D02*
X197567D01*
X196976Y270326D02*
Y271508D01*
X190480Y259106D02*
X191661D01*
X191071Y258516D02*
Y259697D01*
X196386Y247295D02*
X197567D01*
X196976Y246705D02*
Y247886D01*
X190480Y235484D02*
X191661D01*
X191071Y234893D02*
Y236074D01*
X196386Y223673D02*
X197567D01*
X196976Y223082D02*
Y224264D01*
X190480Y211862D02*
X191661D01*
X191071Y211271D02*
Y212453D01*
X196386Y200051D02*
X197567D01*
X196976Y199460D02*
Y200641D01*
X190480Y188240D02*
X191661D01*
X191071Y187649D02*
Y188830D01*
X196386Y176429D02*
X197567D01*
X196976Y175838D02*
Y177020D01*
X190480Y164618D02*
X191661D01*
X191071Y164027D02*
Y165208D01*
X196386Y152807D02*
X197567D01*
X196976Y152216D02*
Y153397D01*
X190480Y140996D02*
X191661D01*
X191071Y140405D02*
Y141586D01*
X196386Y129185D02*
X197567D01*
X196976Y128594D02*
Y129775D01*
X190480Y117374D02*
X191661D01*
X191071Y116783D02*
Y117964D01*
X196386Y105563D02*
X197567D01*
X196976Y104972D02*
Y106153D01*
X190480Y93752D02*
X191661D01*
X191071Y93161D02*
Y94342D01*
X196386Y81941D02*
X197567D01*
X196976Y81350D02*
Y82531D01*
X190480Y70130D02*
X191661D01*
X191071Y69539D02*
Y70720D01*
X196386Y58319D02*
X197567D01*
X196976Y57728D02*
Y58909D01*
X190480Y46508D02*
X191661D01*
X191071Y45917D02*
Y47098D01*
X178669Y377216D02*
X179850D01*
X179260Y376626D02*
Y377807D01*
X184575Y365405D02*
X185756D01*
X185165Y364815D02*
Y365996D01*
X178669Y353594D02*
X179850D01*
X179260Y353004D02*
Y354185D01*
X184575Y341783D02*
X185756D01*
X185165Y341193D02*
Y342374D01*
X178669Y329972D02*
X179850D01*
X179260Y329382D02*
Y330563D01*
X184575Y318161D02*
X185756D01*
X185165Y317571D02*
Y318752D01*
X178669Y306350D02*
X179850D01*
X179260Y305760D02*
Y306941D01*
X184575Y294539D02*
X185756D01*
X185165Y293949D02*
Y295130D01*
X178669Y282728D02*
X179850D01*
X179260Y282137D02*
Y283319D01*
X184575Y270917D02*
X185756D01*
X185165Y270326D02*
Y271508D01*
X178669Y259106D02*
X179850D01*
X179260Y258516D02*
Y259697D01*
X184575Y247295D02*
X185756D01*
X185165Y246705D02*
Y247886D01*
X178669Y235484D02*
X179850D01*
X179260Y234893D02*
Y236074D01*
X184575Y223673D02*
X185756D01*
X185165Y223082D02*
Y224264D01*
X178669Y211862D02*
X179850D01*
X179260Y211271D02*
Y212453D01*
X184575Y200051D02*
X185756D01*
X185165Y199460D02*
Y200641D01*
X178669Y188240D02*
X179850D01*
X179260Y187649D02*
Y188830D01*
X184575Y176429D02*
X185756D01*
X185165Y175838D02*
Y177020D01*
X178669Y164618D02*
X179850D01*
X179260Y164027D02*
Y165208D01*
X184575Y152807D02*
X185756D01*
X185165Y152216D02*
Y153397D01*
X178669Y140996D02*
X179850D01*
X179260Y140405D02*
Y141586D01*
X184575Y129185D02*
X185756D01*
X185165Y128594D02*
Y129775D01*
X178669Y117374D02*
X179850D01*
X179260Y116783D02*
Y117964D01*
X184575Y105563D02*
X185756D01*
X185165Y104972D02*
Y106153D01*
X178669Y93752D02*
X179850D01*
X179260Y93161D02*
Y94342D01*
X184575Y81941D02*
X185756D01*
X185165Y81350D02*
Y82531D01*
X178669Y70130D02*
X179850D01*
X179260Y69539D02*
Y70720D01*
X184575Y58319D02*
X185756D01*
X185165Y57728D02*
Y58909D01*
X178669Y46508D02*
X179850D01*
X179260Y45917D02*
Y47098D01*
X166858Y377216D02*
X168039D01*
X167449Y376626D02*
Y377807D01*
X172764Y365405D02*
X173945D01*
X173354Y364815D02*
Y365996D01*
X166858Y353594D02*
X168039D01*
X167449Y353004D02*
Y354185D01*
X172764Y341783D02*
X173945D01*
X173354Y341193D02*
Y342374D01*
X166858Y329972D02*
X168039D01*
X167449Y329382D02*
Y330563D01*
X172764Y318161D02*
X173945D01*
X173354Y317571D02*
Y318752D01*
X166858Y306350D02*
X168039D01*
X167449Y305760D02*
Y306941D01*
X172764Y294539D02*
X173945D01*
X173354Y293949D02*
Y295130D01*
X166858Y282728D02*
X168039D01*
X167449Y282137D02*
Y283319D01*
X172764Y270917D02*
X173945D01*
X173354Y270326D02*
Y271508D01*
X166858Y259106D02*
X168039D01*
X167449Y258516D02*
Y259697D01*
X172764Y247295D02*
X173945D01*
X173354Y246705D02*
Y247886D01*
X166858Y235484D02*
X168039D01*
X167449Y234893D02*
Y236074D01*
X172764Y223673D02*
X173945D01*
X173354Y223082D02*
Y224264D01*
X166858Y211862D02*
X168039D01*
X167449Y211271D02*
Y212453D01*
X172764Y200051D02*
X173945D01*
X173354Y199460D02*
Y200641D01*
X166858Y188240D02*
X168039D01*
X167449Y187649D02*
Y188830D01*
X172764Y176429D02*
X173945D01*
X173354Y175838D02*
Y177020D01*
X166858Y164618D02*
X168039D01*
X167449Y164027D02*
Y165208D01*
X172764Y152807D02*
X173945D01*
X173354Y152216D02*
Y153397D01*
X166858Y140996D02*
X168039D01*
X167449Y140405D02*
Y141586D01*
X172764Y129185D02*
X173945D01*
X173354Y128594D02*
Y129775D01*
X166858Y117374D02*
X168039D01*
X167449Y116783D02*
Y117964D01*
X172764Y105563D02*
X173945D01*
X173354Y104972D02*
Y106153D01*
X166858Y93752D02*
X168039D01*
X167449Y93161D02*
Y94342D01*
X172764Y81941D02*
X173945D01*
X173354Y81350D02*
Y82531D01*
X166858Y70130D02*
X168039D01*
X167449Y69539D02*
Y70720D01*
X172764Y58319D02*
X173945D01*
X173354Y57728D02*
Y58909D01*
X166858Y46508D02*
X168039D01*
X167449Y45917D02*
Y47098D01*
X479850Y58319D02*
X481031D01*
X480441Y57728D02*
Y58909D01*
X468039Y58319D02*
X469220D01*
X468630Y57728D02*
Y58909D01*
X468039Y34697D02*
X469220D01*
X468630Y34106D02*
Y35287D01*
X456228Y58319D02*
X457409D01*
X456819Y57728D02*
Y58909D01*
X744793Y212657D02*
X747593D01*
X746193Y211258D02*
Y214057D01*
X771537Y170913D02*
X774337D01*
X772937Y169513D02*
Y172313D01*
X397600Y88200D02*
X400400D01*
X399000Y86800D02*
Y89600D01*
X498237Y88400D02*
X501037D01*
X499637Y87000D02*
Y89800D01*
X697400Y140600D02*
X700200D01*
X698800Y139200D02*
Y142000D01*
X697400Y132600D02*
X700200D01*
X698800Y131200D02*
Y134000D01*
X697400Y124700D02*
X700200D01*
X698800Y123300D02*
Y126100D01*
X705800Y140600D02*
X708600D01*
X707200Y139200D02*
Y142000D01*
X705800Y132600D02*
X708600D01*
X707200Y131200D02*
Y134000D01*
X705800Y124700D02*
X708600D01*
X707200Y123300D02*
Y126100D01*
X434100Y113800D02*
X436900D01*
X435500Y112400D02*
Y115200D01*
X440700Y113800D02*
X443500D01*
X442100Y112400D02*
Y115200D01*
X447800Y120439D02*
X450600D01*
X449200Y119039D02*
Y121839D01*
X434100Y120439D02*
X436900D01*
X435500Y119039D02*
Y121839D01*
X440700Y120439D02*
X443500D01*
X442100Y119039D02*
Y121839D01*
X452444Y127400D02*
X455244D01*
X453844Y126000D02*
Y128800D01*
X444794Y127400D02*
X447594D01*
X446194Y126000D02*
Y128800D01*
X437400Y127400D02*
X440200D01*
X438800Y126000D02*
Y128800D01*
X429900Y289800D02*
X432700D01*
X431300Y288400D02*
Y291200D01*
X357900Y489000D02*
X360700D01*
X359300Y487600D02*
Y490400D01*
X306671Y392717D02*
X309471D01*
X308071Y391317D02*
Y394116D01*
X297813Y392717D02*
X300613D01*
X299213Y391317D02*
Y394116D01*
X442498Y73819D02*
X445298D01*
X443898Y72419D02*
Y75219D01*
X473994Y81693D02*
X476794D01*
X475394Y80293D02*
Y83093D01*
X473994Y73819D02*
X476794D01*
X475394Y72419D02*
Y75219D01*
X466120Y81693D02*
X468920D01*
X467520Y80293D02*
Y83093D01*
X466120Y73819D02*
X468920D01*
X467520Y72419D02*
Y75219D01*
X442498Y81693D02*
X445298D01*
X443898Y80293D02*
Y83093D01*
X450372Y81693D02*
X453172D01*
X451772Y80293D02*
Y83093D01*
X450372Y73819D02*
X453172D01*
X451772Y72419D02*
Y75219D01*
X458246Y73819D02*
X461046D01*
X459646Y72419D02*
Y75219D01*
X458246Y81693D02*
X461046D01*
X459646Y80293D02*
Y83093D01*
X398206Y210630D02*
X401006D01*
X399606Y209230D02*
Y212030D01*
X398206Y202756D02*
X401006D01*
X399606Y201356D02*
Y204156D01*
X398206Y194882D02*
X401006D01*
X399606Y193482D02*
Y196282D01*
X398206Y186024D02*
X401006D01*
X399606Y184624D02*
Y187424D01*
X398206Y178150D02*
X401006D01*
X399606Y176750D02*
Y179550D01*
X405096Y178150D02*
X407896D01*
X406496Y176750D02*
Y179550D01*
X405096Y186024D02*
X407896D01*
X406496Y184624D02*
Y187424D01*
X405096Y194882D02*
X407896D01*
X406496Y193482D02*
Y196282D01*
X405096Y202756D02*
X407896D01*
X406496Y201356D02*
Y204156D01*
X405096Y210630D02*
X407896D01*
X406496Y209230D02*
Y212030D01*
X418400Y307374D02*
X421200D01*
X419800Y305974D02*
Y308774D01*
X425300Y307374D02*
X428100D01*
X426700Y305974D02*
Y308774D01*
X432400Y307374D02*
X435200D01*
X433800Y305974D02*
Y308774D01*
X461700Y260474D02*
X464500D01*
X463100Y259074D02*
Y261874D01*
X448400Y260574D02*
X451200D01*
X449800Y259174D02*
Y261974D01*
X455000Y260474D02*
X457800D01*
X456400Y259074D02*
Y261874D01*
X475300Y260474D02*
X478100D01*
X476700Y259074D02*
Y261874D01*
X468700Y260474D02*
X471500D01*
X470100Y259074D02*
Y261874D01*
X442000Y260474D02*
X444800D01*
X443400Y259074D02*
Y261874D01*
X441900Y271874D02*
X444700D01*
X443300Y270474D02*
Y273274D01*
X448400Y271874D02*
X451200D01*
X449800Y270474D02*
Y273274D01*
X455000Y271874D02*
X457800D01*
X456400Y270474D02*
Y273274D01*
X461700Y271874D02*
X464500D01*
X463100Y270474D02*
Y273274D01*
X468700Y271874D02*
X471500D01*
X470100Y270474D02*
Y273274D01*
X475300Y271874D02*
X478100D01*
X476700Y270474D02*
Y273274D01*
X437800Y289800D02*
X440600D01*
X439200Y288400D02*
Y291200D01*
X445300Y289800D02*
X448100D01*
X446700Y288400D02*
Y291200D01*
X408984Y46508D02*
X410165D01*
X409575Y45917D02*
Y47098D01*
X397173Y46508D02*
X398354D01*
X397763Y45917D02*
Y47098D01*
X437400Y140900D02*
X440200D01*
X438800Y139500D02*
Y142300D01*
X437406Y134172D02*
X440206D01*
X438806Y132772D02*
Y135572D01*
X444794Y140900D02*
X447594D01*
X446194Y139500D02*
Y142300D01*
X452444Y140900D02*
X455244D01*
X453844Y139500D02*
Y142300D01*
X452449Y134172D02*
X455249D01*
X453849Y132772D02*
Y135572D01*
X444800Y134172D02*
X447600D01*
X446200Y132772D02*
Y135572D01*
X447800Y113800D02*
X450600D01*
X449200Y112400D02*
Y115200D01*
X442214Y332972D02*
X445014D01*
X443614Y331572D02*
Y334371D01*
X435714Y332972D02*
X438514D01*
X437114Y331572D02*
Y334371D01*
X429214Y332972D02*
X432014D01*
X430614Y331572D02*
Y334371D01*
X442300Y339474D02*
X445100D01*
X443700Y338074D02*
Y340874D01*
X435800Y339474D02*
X438600D01*
X437200Y338074D02*
Y340874D01*
X429300Y339474D02*
X432100D01*
X430700Y338074D02*
Y340874D01*
X429300Y345874D02*
X432100D01*
X430700Y344474D02*
Y347274D01*
X435800Y345874D02*
X438600D01*
X437200Y344474D02*
Y347274D01*
X442300Y345874D02*
X445100D01*
X443700Y344474D02*
Y347274D01*
X379300Y119574D02*
X382100D01*
X380700Y118174D02*
Y120974D01*
X400400Y37774D02*
X403200D01*
X401800Y36374D02*
Y39174D01*
X394000Y38274D02*
X396800D01*
X395400Y36874D02*
Y39674D01*
X386755Y37826D02*
X389555D01*
X388155Y36426D02*
Y39226D01*
X416637Y151813D02*
X419437D01*
X418037Y150413D02*
Y153213D01*
X357863Y482187D02*
X360663D01*
X359263Y480787D02*
Y483587D01*
X357800Y475200D02*
X360600D01*
X359200Y473800D02*
Y476600D01*
X357700Y468200D02*
X360500D01*
X359100Y466800D02*
Y469600D01*
X358437Y432213D02*
X361237D01*
X359837Y430813D02*
Y433613D01*
X779050Y12850D02*
X781850D01*
X780450Y11450D02*
Y14250D01*
X797849Y31649D02*
X800649D01*
X799249Y30249D02*
Y33049D01*
X779050Y31649D02*
X781850D01*
X780450Y30249D02*
Y33049D01*
X775050Y22200D02*
X777850D01*
X776450Y20800D02*
Y23600D01*
X788400Y8850D02*
X791200D01*
X789800Y7450D02*
Y10250D01*
X801750Y22200D02*
X804550D01*
X803150Y20800D02*
Y23600D01*
X788400Y35550D02*
X791200D01*
X789800Y34150D02*
Y36950D01*
X797849Y12850D02*
X800649D01*
X799249Y11450D02*
Y14250D01*
X735837Y364313D02*
X738637D01*
X737237Y362913D02*
Y365713D01*
X607237Y430513D02*
X610037D01*
X608637Y429113D02*
Y431913D01*
X607137Y422413D02*
X609937D01*
X608537Y421013D02*
Y423813D01*
X578737Y454113D02*
X581537D01*
X580137Y452713D02*
Y455513D01*
X578387Y461513D02*
X581187D01*
X579787Y460113D02*
Y462913D01*
X779050Y491850D02*
X781850D01*
X780450Y490450D02*
Y493250D01*
X797849Y510649D02*
X800649D01*
X799249Y509249D02*
Y512049D01*
X779050Y510649D02*
X781850D01*
X780450Y509249D02*
Y512049D01*
X775050Y501200D02*
X777850D01*
X776450Y499800D02*
Y502600D01*
X788400Y487850D02*
X791200D01*
X789800Y486450D02*
Y489250D01*
X801750Y501200D02*
X804550D01*
X803150Y499800D02*
Y502600D01*
X788400Y514550D02*
X791200D01*
X789800Y513150D02*
Y515950D01*
X797849Y491850D02*
X800649D01*
X799249Y490450D02*
Y493250D01*
X10650Y12850D02*
X13450D01*
X12050Y11450D02*
Y14250D01*
X29449Y31649D02*
X32249D01*
X30849Y30249D02*
Y33049D01*
X10650Y31649D02*
X13450D01*
X12050Y30249D02*
Y33049D01*
X6650Y22200D02*
X9450D01*
X8050Y20800D02*
Y23600D01*
X20000Y8850D02*
X22800D01*
X21400Y7450D02*
Y10250D01*
X33350Y22200D02*
X36150D01*
X34750Y20800D02*
Y23600D01*
X20000Y35550D02*
X22800D01*
X21400Y34150D02*
Y36950D01*
X29449Y12850D02*
X32249D01*
X30849Y11450D02*
Y14250D01*
X10850Y492450D02*
X13650D01*
X12250Y491050D02*
Y493850D01*
X29649Y511249D02*
X32449D01*
X31049Y509849D02*
Y512649D01*
X10850Y511249D02*
X13650D01*
X12250Y509849D02*
Y512649D01*
X6850Y501800D02*
X9650D01*
X8250Y500400D02*
Y503200D01*
X20200Y488450D02*
X23000D01*
X21600Y487050D02*
Y489850D01*
X33550Y501800D02*
X36350D01*
X34950Y500400D02*
Y503200D01*
X20200Y515150D02*
X23000D01*
X21600Y513750D02*
Y516550D01*
X29649Y492450D02*
X32449D01*
X31049Y491050D02*
Y493850D01*
X622237Y55413D02*
X625037D01*
X623637Y54013D02*
Y56813D01*
X781837Y204113D02*
X784637D01*
X783237Y202713D02*
Y205513D01*
X356537Y406913D02*
X359337D01*
X357937Y405513D02*
Y408313D01*
M02*
