G04*
G04 #@! TF.GenerationSoftware,Altium Limited,Altium Designer,21.4.1 (30)*
G04*
G04 Layer_Color=8421504*
%FSLAX25Y25*%
%MOIN*%
G70*
G04*
G04 #@! TF.SameCoordinates,5C5CB9DB-6683-4862-BC7F-C0E48B32F829*
G04*
G04*
G04 #@! TF.FilePolarity,Positive*
G04*
G01*
G75*
%ADD24R,0.35827X0.12205*%
%ADD25R,0.06303X0.05906*%
%ADD26R,0.06299X0.05512*%
%ADD27R,0.05827X0.04016*%
%ADD28R,0.16142X0.08268*%
%ADD29R,0.31890X0.16142*%
%ADD30R,0.24016X0.16142*%
%ADD31R,0.23622X0.15748*%
%ADD32R,0.08661X0.04134*%
%ADD33R,0.28347X0.27165*%
G04:AMPARAMS|DCode=34|XSize=78.74mil|YSize=136.61mil|CornerRadius=4.59mil|HoleSize=0mil|Usage=FLASHONLY|Rotation=270.000|XOffset=0mil|YOffset=0mil|HoleType=Round|Shape=RoundedRectangle|*
%AMROUNDEDRECTD34*
21,1,0.07874,0.12744,0,0,270.0*
21,1,0.06957,0.13661,0,0,270.0*
1,1,0.00917,-0.06372,-0.03478*
1,1,0.00917,-0.06372,0.03478*
1,1,0.00917,0.06372,0.03478*
1,1,0.00917,0.06372,-0.03478*
%
%ADD34ROUNDEDRECTD34*%
G04:AMPARAMS|DCode=35|XSize=78.74mil|YSize=136.61mil|CornerRadius=4.59mil|HoleSize=0mil|Usage=FLASHONLY|Rotation=180.000|XOffset=0mil|YOffset=0mil|HoleType=Round|Shape=RoundedRectangle|*
%AMROUNDEDRECTD35*
21,1,0.07874,0.12744,0,0,180.0*
21,1,0.06957,0.13661,0,0,180.0*
1,1,0.00917,-0.03478,0.06372*
1,1,0.00917,0.03478,0.06372*
1,1,0.00917,0.03478,-0.06372*
1,1,0.00917,-0.03478,-0.06372*
%
%ADD35ROUNDEDRECTD35*%
%ADD36R,0.02756X0.09055*%
%ADD37R,0.06890X0.05118*%
%ADD38R,0.05118X0.06890*%
D24*
X715177Y250361D02*
D03*
X715153Y268679D02*
D03*
X427777Y250561D02*
D03*
X427751Y268679D02*
D03*
X425870Y77815D02*
D03*
X425896Y59697D02*
D03*
X713272Y77815D02*
D03*
X713296Y59497D02*
D03*
D25*
X238937Y408353D02*
D03*
Y415474D02*
D03*
X90937Y408353D02*
D03*
Y415474D02*
D03*
X309500Y409139D02*
D03*
Y416261D02*
D03*
X164937Y407913D02*
D03*
Y415034D02*
D03*
X633500Y370839D02*
D03*
Y377961D02*
D03*
X688100Y360439D02*
D03*
Y367561D02*
D03*
X686900Y326361D02*
D03*
Y319239D02*
D03*
X686891Y346934D02*
D03*
Y339813D02*
D03*
D26*
X583800Y478110D02*
D03*
Y470629D02*
D03*
D27*
X736337Y354673D02*
D03*
Y347154D02*
D03*
X748437Y354673D02*
D03*
Y347154D02*
D03*
X154937Y407154D02*
D03*
Y414673D02*
D03*
X228737Y408054D02*
D03*
Y415573D02*
D03*
X298386Y408335D02*
D03*
Y415854D02*
D03*
X89937Y449154D02*
D03*
Y456673D02*
D03*
X583800Y495860D02*
D03*
Y488340D02*
D03*
D28*
X349309Y146913D02*
D03*
Y160693D02*
D03*
Y304394D02*
D03*
Y318173D02*
D03*
Y68173D02*
D03*
Y81953D02*
D03*
Y225654D02*
D03*
Y239433D02*
D03*
D29*
X341465Y128971D02*
D03*
Y178734D02*
D03*
Y286451D02*
D03*
Y336215D02*
D03*
Y50230D02*
D03*
Y99994D02*
D03*
Y207711D02*
D03*
Y257474D02*
D03*
D30*
X132350Y154935D02*
D03*
Y130053D02*
D03*
Y312415D02*
D03*
Y287533D02*
D03*
Y76195D02*
D03*
Y51313D02*
D03*
Y233675D02*
D03*
Y208793D02*
D03*
D31*
Y179817D02*
D03*
Y337297D02*
D03*
Y101077D02*
D03*
Y258557D02*
D03*
D32*
X761614Y156890D02*
D03*
Y138937D02*
D03*
D33*
X786417Y147913D02*
D03*
D34*
X745237Y60741D02*
D03*
Y81686D02*
D03*
X742900Y245355D02*
D03*
Y266300D02*
D03*
D35*
X367055Y289000D02*
D03*
X388000D02*
D03*
X366955Y132900D02*
D03*
X387900D02*
D03*
X367055Y207100D02*
D03*
X388000D02*
D03*
X366928Y48600D02*
D03*
X387872D02*
D03*
D36*
X391337Y109550D02*
D03*
Y89077D02*
D03*
X396337Y109550D02*
D03*
X386337D02*
D03*
X381337D02*
D03*
X396337Y89077D02*
D03*
X386337D02*
D03*
X381337D02*
D03*
X391337Y264650D02*
D03*
Y244177D02*
D03*
X396337Y264650D02*
D03*
X386337D02*
D03*
X381337D02*
D03*
X396337Y244177D02*
D03*
X386337D02*
D03*
X381337D02*
D03*
X775437Y231150D02*
D03*
Y210677D02*
D03*
X780437Y231150D02*
D03*
X770437D02*
D03*
X765437D02*
D03*
X780437Y210677D02*
D03*
X770437D02*
D03*
X765437D02*
D03*
D37*
X773384Y189953D02*
D03*
Y178929D02*
D03*
X783384Y189953D02*
D03*
Y178929D02*
D03*
X789937Y209202D02*
D03*
Y220225D02*
D03*
X753937Y223425D02*
D03*
Y212402D02*
D03*
X341337Y461690D02*
D03*
Y472713D02*
D03*
Y436202D02*
D03*
Y447225D02*
D03*
Y486802D02*
D03*
Y497825D02*
D03*
X351637Y472713D02*
D03*
Y461690D02*
D03*
Y447225D02*
D03*
Y436202D02*
D03*
Y497825D02*
D03*
Y486802D02*
D03*
X402800Y233912D02*
D03*
Y222888D02*
D03*
X402247Y67177D02*
D03*
Y78201D02*
D03*
X393147Y222925D02*
D03*
Y233949D02*
D03*
X391002Y78372D02*
D03*
Y67349D02*
D03*
X371700Y257986D02*
D03*
Y246962D02*
D03*
X370765Y94602D02*
D03*
Y105625D02*
D03*
D38*
X734688Y101500D02*
D03*
X745712D02*
D03*
X767612Y256400D02*
D03*
X756588D02*
D03*
X790449Y265513D02*
D03*
X779425D02*
D03*
X790402Y250413D02*
D03*
X779378D02*
D03*
X381001Y233162D02*
D03*
X369978D02*
D03*
X382501Y77413D02*
D03*
X371477D02*
D03*
X381001Y222762D02*
D03*
X369978D02*
D03*
X382501Y66237D02*
D03*
X371477D02*
D03*
X385178Y315917D02*
D03*
X374155D02*
D03*
X387607Y158913D02*
D03*
X376584D02*
D03*
X385178Y306017D02*
D03*
X374155D02*
D03*
X387607Y148013D02*
D03*
X376584D02*
D03*
X391488Y276300D02*
D03*
X402512D02*
D03*
X391100Y120100D02*
D03*
X402124D02*
D03*
M02*
