G04*
G04 #@! TF.GenerationSoftware,Altium Limited,Altium Designer,21.4.1 (30)*
G04*
G04 Layer_Physical_Order=2*
G04 Layer_Color=32768*
%FSLAX25Y25*%
%MOIN*%
G70*
G04*
G04 #@! TF.SameCoordinates,5C5CB9DB-6683-4862-BC7F-C0E48B32F829*
G04*
G04*
G04 #@! TF.FilePolarity,Negative*
G04*
G01*
G75*
%ADD94C,0.14630*%
%ADD110C,0.04000*%
%ADD111C,0.03937*%
%ADD112R,0.21000X0.13400*%
%ADD113R,0.15115X0.27413*%
%ADD114R,0.20400X0.19200*%
%ADD115C,0.17779*%
%ADD116C,0.07937*%
%ADD117C,0.19748*%
%ADD118C,0.11874*%
%ADD119C,0.07347*%
%ADD120C,0.07386*%
%ADD121C,0.06362*%
%ADD122C,0.14039*%
%ADD123C,0.07150*%
%ADD124C,0.10693*%
%ADD125C,0.07543*%
%ADD126C,0.07150*%
%ADD127C,0.21717*%
%ADD128C,0.06800*%
%ADD129C,0.05181*%
D94*
X737697Y440412D02*
D03*
D110*
X-0Y0D02*
X192937D01*
X-0D02*
X0Y523622D01*
X645800D01*
Y460561D02*
Y523622D01*
Y460561D02*
X725500D01*
Y523500D01*
X811024D01*
Y523622D01*
X192937Y0D02*
Y17913D01*
X274937D01*
Y0D02*
Y17913D01*
Y0D02*
X811024D01*
X811024Y523622D01*
D111*
X369248Y443332D02*
X370136Y442445D01*
X636Y463670D02*
X3535Y460803D01*
X38937Y131439D02*
Y424449D01*
Y131439D02*
X39483Y130893D01*
X54939D01*
X38937Y424449D02*
X51815D01*
X54847Y98514D02*
X54939Y130893D01*
X51815Y424449D02*
X370837D01*
X370312Y462882D02*
X370614Y424916D01*
X3535Y460803D02*
X370312Y462882D01*
X21476Y443125D02*
X369248Y443332D01*
X54837Y98813D02*
X55337Y84013D01*
X21476Y443125D02*
X22112Y97966D01*
X53836Y98514D01*
X1637Y83713D02*
X54537Y84013D01*
X769637Y520413D02*
X769658Y516232D01*
X769644Y516245D02*
X769658Y516232D01*
X688337Y419013D02*
X790902D01*
X790549Y473544D02*
X790902Y419013D01*
X769854Y474050D02*
X790549Y473544D01*
X769644Y516245D02*
X769854Y474050D01*
X688337Y419013D02*
Y521813D01*
D112*
X441800Y117200D02*
D03*
D113*
X362442Y478607D02*
D03*
D114*
X437300Y339300D02*
D03*
D115*
X430704Y224388D02*
D03*
X712200D02*
D03*
Y379900D02*
D03*
X430704D02*
D03*
X428823Y189035D02*
D03*
X710319D02*
D03*
Y33524D02*
D03*
X428823D02*
D03*
D116*
X461216Y239152D02*
D03*
Y223404D02*
D03*
X766252Y285646D02*
D03*
Y295646D02*
D03*
Y305646D02*
D03*
X42323Y161732D02*
D03*
Y151732D02*
D03*
Y141732D02*
D03*
X766252Y344646D02*
D03*
Y354646D02*
D03*
Y364646D02*
D03*
X459335Y32539D02*
D03*
Y48287D02*
D03*
X175937Y497913D02*
D03*
Y487913D02*
D03*
Y477913D02*
D03*
Y467913D02*
D03*
Y457913D02*
D03*
Y447913D02*
D03*
Y437913D02*
D03*
Y427913D02*
D03*
Y407913D02*
D03*
X250858Y407331D02*
D03*
Y427331D02*
D03*
Y437331D02*
D03*
Y447331D02*
D03*
Y457331D02*
D03*
Y467331D02*
D03*
Y477331D02*
D03*
Y487331D02*
D03*
Y497331D02*
D03*
X103100Y497300D02*
D03*
Y487300D02*
D03*
Y477300D02*
D03*
Y467300D02*
D03*
Y457300D02*
D03*
Y447300D02*
D03*
Y437300D02*
D03*
Y427300D02*
D03*
Y407300D02*
D03*
X323323Y407331D02*
D03*
Y427331D02*
D03*
Y437331D02*
D03*
Y447331D02*
D03*
Y457331D02*
D03*
Y467331D02*
D03*
Y477331D02*
D03*
Y487331D02*
D03*
Y497331D02*
D03*
D117*
X745129Y490900D02*
D03*
X626271D02*
D03*
D118*
X754972Y504679D02*
D03*
X636113D02*
D03*
X616428D02*
D03*
X636113Y477120D02*
D03*
X616428D02*
D03*
X735287Y504679D02*
D03*
Y477120D02*
D03*
X754972D02*
D03*
D119*
X331824Y369200D02*
D03*
X331849Y375000D02*
D03*
X607937Y408953D02*
D03*
Y438874D02*
D03*
D120*
X675750Y308275D02*
D03*
Y318275D02*
D03*
Y328275D02*
D03*
Y338275D02*
D03*
Y348275D02*
D03*
Y358275D02*
D03*
Y368275D02*
D03*
Y378275D02*
D03*
X644490D02*
D03*
Y368275D02*
D03*
Y358275D02*
D03*
Y348275D02*
D03*
Y338275D02*
D03*
Y328275D02*
D03*
Y308275D02*
D03*
D121*
X761319Y452813D02*
D03*
Y399664D02*
D03*
D122*
X67518Y144387D02*
D03*
Y128639D02*
D03*
X81156Y136513D02*
D03*
X64394Y178039D02*
D03*
Y193787D02*
D03*
X78032Y185913D02*
D03*
X67518Y326287D02*
D03*
Y310539D02*
D03*
X81156Y318413D02*
D03*
X70618Y356039D02*
D03*
Y371787D02*
D03*
X84256Y363913D02*
D03*
X67518Y53987D02*
D03*
Y38239D02*
D03*
X81156Y46113D02*
D03*
X64394Y82065D02*
D03*
Y97813D02*
D03*
X78032Y89939D02*
D03*
X67518Y238487D02*
D03*
Y222739D02*
D03*
X81156Y230613D02*
D03*
X64394Y266639D02*
D03*
Y282387D02*
D03*
X78032Y274513D02*
D03*
D123*
X650700Y425300D02*
D03*
Y435300D02*
D03*
X488900Y219500D02*
D03*
Y229500D02*
D03*
Y27700D02*
D03*
Y37700D02*
D03*
D124*
X8100Y63832D02*
D03*
Y115800D02*
D03*
D125*
X445600Y429800D02*
D03*
X565600D02*
D03*
X555600D02*
D03*
X545600D02*
D03*
X535600D02*
D03*
X525600D02*
D03*
X515600D02*
D03*
X505600D02*
D03*
X495600D02*
D03*
X485600D02*
D03*
X475600D02*
D03*
X465600D02*
D03*
X435600D02*
D03*
X425600D02*
D03*
X415600D02*
D03*
X405600D02*
D03*
X395600D02*
D03*
X385600D02*
D03*
X375600D02*
D03*
X455600D02*
D03*
X565600Y489700D02*
D03*
X555600D02*
D03*
X545600D02*
D03*
X535600D02*
D03*
X525600D02*
D03*
X515600D02*
D03*
X505600D02*
D03*
X495600D02*
D03*
X485600D02*
D03*
X475600D02*
D03*
X465600D02*
D03*
X455600D02*
D03*
X445600D02*
D03*
X435600D02*
D03*
X425600D02*
D03*
X415600D02*
D03*
X405600D02*
D03*
X395600D02*
D03*
X375600D02*
D03*
X786937Y89913D02*
D03*
X776937D02*
D03*
X766937D02*
D03*
D126*
X769047Y113913D02*
D03*
X739100Y152779D02*
D03*
D127*
X208598Y418898D02*
D03*
D128*
X401600Y240275D02*
D03*
X477000Y252474D02*
D03*
X469900Y252674D02*
D03*
X75731Y448837D02*
D03*
X365937Y475313D02*
D03*
X366000Y482100D02*
D03*
X366200Y489000D02*
D03*
X365837Y468200D02*
D03*
X383644Y276476D02*
D03*
X440700Y103300D02*
D03*
X414370Y103200D02*
D03*
X423900D02*
D03*
X432200D02*
D03*
X439200Y282300D02*
D03*
X431300D02*
D03*
X446700D02*
D03*
Y296374D02*
D03*
X439200D02*
D03*
X431300D02*
D03*
X341200Y455000D02*
D03*
X336100Y439300D02*
D03*
X399000Y88200D02*
D03*
X499637Y88400D02*
D03*
X698800Y140600D02*
D03*
Y132600D02*
D03*
Y124700D02*
D03*
X707200Y140600D02*
D03*
Y132600D02*
D03*
Y124700D02*
D03*
X435500Y113800D02*
D03*
X442100D02*
D03*
X449200Y120439D02*
D03*
X435500D02*
D03*
X442100D02*
D03*
X453844Y127400D02*
D03*
X446194D02*
D03*
X438800D02*
D03*
X431300Y289800D02*
D03*
X359300Y489000D02*
D03*
X308071Y392717D02*
D03*
X299213D02*
D03*
X443898Y73819D02*
D03*
X475394Y81693D02*
D03*
Y73819D02*
D03*
X467520Y81693D02*
D03*
Y73819D02*
D03*
X443898Y81693D02*
D03*
X451772D02*
D03*
Y73819D02*
D03*
X459646D02*
D03*
Y81693D02*
D03*
X399606Y210630D02*
D03*
Y202756D02*
D03*
Y194882D02*
D03*
Y186024D02*
D03*
Y178150D02*
D03*
X406496D02*
D03*
Y186024D02*
D03*
Y194882D02*
D03*
Y202756D02*
D03*
Y210630D02*
D03*
X419800Y307374D02*
D03*
X426700D02*
D03*
X433800D02*
D03*
X463100Y260474D02*
D03*
X449800Y260574D02*
D03*
X456400Y260474D02*
D03*
X476700D02*
D03*
X470100D02*
D03*
X443400D02*
D03*
X443300Y271874D02*
D03*
X449800D02*
D03*
X456400D02*
D03*
X463100D02*
D03*
X470100D02*
D03*
X476700D02*
D03*
X439200Y289800D02*
D03*
X446700D02*
D03*
X438800Y140900D02*
D03*
X438806Y134172D02*
D03*
X446194Y140900D02*
D03*
X453844D02*
D03*
X453849Y134172D02*
D03*
X446200D02*
D03*
X449200Y113800D02*
D03*
X443614Y332972D02*
D03*
X437114D02*
D03*
X430614D02*
D03*
X443700Y339474D02*
D03*
X437200D02*
D03*
X430700D02*
D03*
Y345874D02*
D03*
X437200D02*
D03*
X443700D02*
D03*
X380700Y119574D02*
D03*
X401800Y37774D02*
D03*
X395400Y38274D02*
D03*
X388155Y37826D02*
D03*
X418037Y151813D02*
D03*
X359263Y482187D02*
D03*
X359200Y475200D02*
D03*
X359100Y468200D02*
D03*
X737237Y364313D02*
D03*
X608637Y430513D02*
D03*
X608537Y422413D02*
D03*
X580137Y454113D02*
D03*
X579787Y461513D02*
D03*
X623637Y55413D02*
D03*
X783237Y204113D02*
D03*
X357937Y406913D02*
D03*
D129*
X742089Y259111D02*
D03*
Y235489D02*
D03*
X409575Y46508D02*
D03*
X397763D02*
D03*
M02*
