G04*
G04 #@! TF.GenerationSoftware,Altium Limited,Altium Designer,21.4.1 (30)*
G04*
G04 Layer_Color=128*
%FSLAX25Y25*%
%MOIN*%
G70*
G04*
G04 #@! TF.SameCoordinates,5C5CB9DB-6683-4862-BC7F-C0E48B32F829*
G04*
G04*
G04 #@! TF.FilePolarity,Positive*
G04*
G01*
G75*
%ADD27R,0.05827X0.04016*%
%ADD28R,0.16142X0.08268*%
%ADD29R,0.31890X0.16142*%
%ADD30R,0.24016X0.16142*%
%ADD31R,0.23622X0.15748*%
G04:AMPARAMS|DCode=35|XSize=78.74mil|YSize=136.61mil|CornerRadius=4.59mil|HoleSize=0mil|Usage=FLASHONLY|Rotation=180.000|XOffset=0mil|YOffset=0mil|HoleType=Round|Shape=RoundedRectangle|*
%AMROUNDEDRECTD35*
21,1,0.07874,0.12744,0,0,180.0*
21,1,0.06957,0.13661,0,0,180.0*
1,1,0.00917,-0.03478,0.06372*
1,1,0.00917,0.03478,0.06372*
1,1,0.00917,0.03478,-0.06372*
1,1,0.00917,-0.03478,-0.06372*
%
%ADD35ROUNDEDRECTD35*%
%ADD36R,0.02756X0.09055*%
%ADD38R,0.05118X0.06890*%
%ADD134R,0.05512X0.06299*%
%ADD135R,0.04016X0.05827*%
D27*
X504637Y219654D02*
D03*
Y227173D02*
D03*
D28*
X349309Y161874D02*
D03*
Y148094D02*
D03*
X349309Y319354D02*
D03*
Y305575D02*
D03*
Y83134D02*
D03*
Y69354D02*
D03*
Y240614D02*
D03*
Y226835D02*
D03*
D29*
X341466Y179817D02*
D03*
Y130053D02*
D03*
X341465Y337297D02*
D03*
Y287533D02*
D03*
Y101077D02*
D03*
Y51313D02*
D03*
Y258557D02*
D03*
Y208793D02*
D03*
D30*
X132350Y153852D02*
D03*
Y178734D02*
D03*
X132350Y311333D02*
D03*
Y336215D02*
D03*
Y75112D02*
D03*
Y99994D02*
D03*
Y232593D02*
D03*
Y257474D02*
D03*
D31*
X132350Y128971D02*
D03*
X132350Y286451D02*
D03*
Y50230D02*
D03*
Y207711D02*
D03*
D35*
X365428Y339000D02*
D03*
X386372D02*
D03*
X365428Y182300D02*
D03*
X386372D02*
D03*
X366155Y256000D02*
D03*
X387100D02*
D03*
X366455Y100400D02*
D03*
X387400D02*
D03*
D36*
X394137Y136950D02*
D03*
Y116477D02*
D03*
X389137Y136950D02*
D03*
X399137D02*
D03*
X404137D02*
D03*
X389137Y116477D02*
D03*
X399137D02*
D03*
X404137D02*
D03*
X394237Y293150D02*
D03*
Y272677D02*
D03*
X389237Y293150D02*
D03*
X399237D02*
D03*
X404237D02*
D03*
X389237Y272677D02*
D03*
X399237D02*
D03*
X404237D02*
D03*
D38*
X410649Y316513D02*
D03*
X399625D02*
D03*
X381907Y231813D02*
D03*
X370884D02*
D03*
X381907Y70313D02*
D03*
X370884D02*
D03*
X381907Y242413D02*
D03*
X370884D02*
D03*
X381907Y81913D02*
D03*
X370884D02*
D03*
X418125Y270913D02*
D03*
X429149D02*
D03*
X418125Y132513D02*
D03*
X429149D02*
D03*
X411888Y282774D02*
D03*
X422912D02*
D03*
X418125Y118013D02*
D03*
X429149D02*
D03*
X381907Y311913D02*
D03*
X370884D02*
D03*
X381907Y151496D02*
D03*
X370884D02*
D03*
X381907Y323713D02*
D03*
X370884D02*
D03*
X381907Y163244D02*
D03*
X370884D02*
D03*
X399625Y305813D02*
D03*
X410649D02*
D03*
X396425Y151313D02*
D03*
X407449D02*
D03*
Y163113D02*
D03*
X396425D02*
D03*
D134*
X563647Y399613D02*
D03*
X556166D02*
D03*
X506528Y44913D02*
D03*
X514008D02*
D03*
D135*
X513697Y33913D02*
D03*
X506177D02*
D03*
M02*
