M48
;Layer_Color=9474304
;FILE_FORMAT=2:5
INCH,LZ
;TYPE=PLATED
T1F00S00C0.01181
T2F00S00C0.02362
T3F00S00C0.02800
T4F00S00C0.03150
T5F00S00C0.03346
T6F00S00C0.03386
T7F00S00C0.03543
T8F00S00C0.03937
T9F00S00C0.06378
T10F00S00C0.06693
T11F00S00C0.07874
T12F00S00C0.10039
T13F00S00C0.10630
T14F00S00C0.13780
T15F00S00C0.15748
T16F00S00C0.17717
%
T01
X0167449Y0046508
X017926
X0191071
X0196976Y0058319
X0185165
X0173354
X017926Y007013
X0191071
X0196976Y0081941
X0185165
X0173354
X0167449Y007013
X0202882
X0214693
X0226504
X0238315
X0250126
X0261937
X0273748
X0285559
X029737
X0303275Y0081941
X0291464
X0279653
X0267842
X0256031
X024422
X0232409
X0220598
X0208787
Y0058319
X0220598
X0232409
X024422
X0256031
X0267842
X0279653
X0291464
X0303275
X029737Y0046508
X0285559
X0273748
X0261937
X0250126
X0238315
X0226504
X0214693
X0202882
X0380047Y0034697
X0397763Y0046508
X0409575
X0445008
X0450913Y0058319
X0456819
X0462724
X046863
X0474535
X0480441
X0486346
X0492252
X0498157
X0509968
X0504063Y007013
X0486346Y0081941
X0480441Y0046508
X0474535
X046863
Y0034697
X0474535
X0480441
X0450913
X0527685Y0046508
X0539496
X0551307
X0563118
X058674
X0592645Y0034697
X0580834
X0610362Y0046508
Y007013
X058674
X0592645Y0081941
X0580834
X0569023
X0557212
X0545401
X053359
X0539496Y007013
X0551307
X0563118
X0527685
X0521779Y0058319
X0742089Y0235489
X0610362Y0235484
Y0211862
Y018824
Y0164618
Y0140996
Y0117374
X058674
X0592645Y0129185
X0580834
X0569023
X0557212
X0545401
X053359
X0521779
X0527685Y0140996
X0539496
X0551307
X0563118
X0569023Y0152807
X0580834
X0592645
X058674Y0164618
X0592645Y0176429
X0580834
X0569023
X0557212
X0545401
X053359
X0521779
X0527685Y018824
X0539496
X0551307
X0563118
X0569023Y0200051
X0580834
X0592645
X058674Y0211862
X0592645Y0223673
X0580834
X0569023
X0557212
X0545401
X053359
X0521779
X0527685Y0235484
X0539496
X0551307
Y0211862
X0563118
X0557212Y0200051
X0545401
X053359
X0521779
X0527685Y0211862
X0539496
X0515874
Y0235484
Y018824
Y0164618
X0527685
X0539496
X0551307
X0563118
X0557212Y0152807
X0545401
X053359
X0521779
X0515874Y0140996
Y0117374
X0527685
X0539496
X0551307
X0563118
X0569023Y0105563
X0580834
X0592645
X0557212
X0545401
X053359
X0521779
X058674Y0140996
Y018824
Y0235484
X0492252
X0480441
X046863
X0456819
Y0211862
X046863
X0474535Y0200051
X0486346
X0492252Y018824
X0480441
X046863
X0456819
X0462724Y0200051
X0450913
X0445008Y0211862
X0450913Y0176429
X0462724
X0474535
X0486346
X0492252Y0164618
X0504063
Y0140996
X0492252
X0480441
X046863
X0474535Y0152807
X0486346
Y0129185
X0474535
X0462724
X046863Y0117374
X0480441
X0492252
X0504063
X0486346Y0105563
X0474535
X0462724
X0450913
X0456819Y0117374
X0462724Y0152807
X0450913
X0439102
X0427291
X041548Y0176429
X0380047
X0362331Y0164618
X0374142Y0140996
X0498157Y0223673
X0332803
X0303275
X0291464
X0279653
X0267842
X0256031
X024422
X0232409
X0220598
X0208787
X0214693Y0235484
X0226504
X0238315
X0250126
X0261937
X0273748
X0285559
X029737
Y0211862
X0285559
X0273748
X0261937
X0250126
X0238315
X0226504
X0214693
X0202882
X0208787Y0200051
X0220598
X0232409
X024422
X0256031
X0267842
X0279653
X0291464
X0303275
X029737Y018824
X0285559
X0273748
X0261937
X0250126
X0238315
X0226504
X0214693
X0202882
X0208787Y0176429
X0220598
X0232409
X024422
X0256031
X0267842
X0279653
X0291464
X0303275
X029737Y0164618
X0285559
X0273748
X0261937
X0250126
X0238315
X0226504
X0214693
X0202882
X0208787Y0152807
X0220598
X0232409
X024422
X0256031
X0267842
X0279653
X0291464
X0303275
X029737Y0140996
X0285559
X0273748
X0261937
X0250126
X0238315
X0226504
X0214693
X0202882
X0208787Y0129185
X0220598
X0232409
X024422
X0256031
X0267842
X0279653
X0291464
X0303275
X029737Y0117374
X0285559
X0273748
X0261937
X0250126
X0238315
X0226504
X0214693
X0202882
X0208787Y0105563
X0220598
X0232409
X024422
X0256031
X0267842
X0279653
X0291464
X0303275
X029737Y0093752
X0285559
X0273748
X0261937
X0250126
X0238315
X0226504
X0214693
X0202882
Y0235484
X0191071
X017926
X0167449
X0173354Y0223673
X0185165
X0196976
X0191071Y0211862
X017926
X0167449
X0173354Y0200051
X0185165
X0196976
X0191071Y018824
X017926
X0167449
X0173354Y0176429
X0185165
X0196976
X0191071Y0164618
X017926
X0167449
X0173354Y0152807
X0185165
X0196976
X0191071Y0140996
X017926
X0167449
X0173354Y0129185
X0185165
X0196976
X0191071Y0117374
X017926
X0167449
X0173354Y0105563
X0185165
X0196976
X0191071Y0093752
X017926
X0167449
X0173354Y0247295
X0185165
X0196976
X0191071Y0259106
X017926
X0167449
X0173354Y0270917
X0185165
X0196976
X0191071Y0282728
X017926
X0167449
X0173354Y0294539
X0185165
X0196976
X0191071Y030635
X017926
X0167449
X0173354Y0318161
X0185165
X0196976
X0191071Y0329972
X017926
X0167449
X0173354Y0341783
X0185165
X0196976
X0191071Y0353594
X017926
X0167449
X0173354Y0365405
X0185165
X0196976
X0191071Y0377216
X017926
X0167449
X0202882
X0214693
X0226504
X0238315
X0250126
X0261937
X0273748
X0285559
X029737
X0303275Y0365405
X0291464
X0279653
X0267842
X0256031
X024422
X0232409
X0220598
X0208787
X0214693Y0353594
X0226504
X0238315
X0250126
X0261937
X0273748
X0285559
X029737
X0303275Y0341783
X0291464
X0279653
X0267842
X0256031
X024422
X0232409
X0220598
X0208787
X0214693Y0329972
X0226504
X0238315
X0250126
X0261937
X0273748
X0285559
X029737
X0303275Y0318161
X0291464
X0279653
X0267842
X0256031
X024422
X0232409
X0220598
X0208787
X0214693Y030635
X0226504
X0238315
X0250126
X0261937
X0273748
X0285559
X029737
X0303275Y0294539
X0291464
X0279653
X0267842
X0256031
X024422
X0232409
X0220598
X0208787
X0214693Y0282728
X0226504
X0238315
X0250126
X0261937
X0273748
X0285559
X029737
X0303275Y0270917
X0291464
X0279653
X0267842
X0256031
X024422
X0232409
X0220598
X0208787
X0214693Y0259106
X0226504
X0238315
X0250126
X0261937
X0273748
X0285559
X029737
X0303275Y0247295
X0291464
X0279653
X0267842
X0256031
X024422
X0232409
X0220598
X0208787
X0202882Y0259106
Y0282728
Y030635
Y0329972
Y0353594
X0380047Y0341783
X0427291Y0318161
X0439102
X0445008Y030635
X0456819
X046863
X0480441
X0492252
X0498157Y0318161
X0486346
X0474535
X0462724
X046863Y0329972
X0480441
X0492252
X0498157Y0341783
X0486346
X0474535
X0462724
X0456819Y0329972
X0462724Y0294539
X0474535
X0486346
X0498157
X0492252Y0282728
X0480441
X046863
X0456819
X0486346Y0270917
X0498157
X0492252Y0259106
X0515874
X0539496
X0551307
X0557212Y0270917
X0569023
X0580834
X0592645
X058674Y0282728
X0592645Y0294539
X0580834
X0569023
X0557212
X0545401
X053359
X0539496Y030635
X0551307
X0557212Y0318161
X0569023
X0580834
X0592645
X058674Y0329972
X0592645Y0341783
X0604456
X0610362Y0329972
Y030635
Y0282728
Y0259106
X058674
X0592645Y0247295
X0580834
X0569023
X0557212
X0545401
X053359
Y0270917
X0545401
X0551307Y0282728
X0539496
X0515874
Y030635
Y0329972
X0539496
X0551307
X0557212Y0341783
X0569023
X0580834
X0545401
X053359
Y0318161
X0545401
X058674Y030635
X0742089Y0259111
T02
X0761319Y0399664
Y0452813
T03
X001205Y001285
X000805Y00222
X001205Y0031649
X00214Y003555
X0030849Y0031649
X003475Y00222
X0030849Y001285
X00214Y000885
X03295Y00357
X03387Y0036
X0348358
X03347Y00688
X03251Y00686
X0324803Y007874
X0334646
X03582Y0036
X03675
X0388155Y0037826
X03954Y0038274
X04018Y0037774
X0443898Y0073819
X0451772
Y0081693
X0443898
X0459646
X046752
X0475394
Y0073819
X046752
X0459646
X0623637Y0055413
X0659449Y0049213
Y003937
Y0029528
X0669291
Y003937
Y0049213
X0679134
Y003937
Y0029528
X078045Y0031649
X07898Y003555
X0799249Y0031649
X080315Y00222
X0799249Y001285
X07898Y000885
X078045Y001285
X077645Y00222
X0772937Y0170913
X0783237Y0204113
X0746193Y0212657
X0669291Y0226378
Y0236221
X06988Y01406
Y01326
Y01247
X07072
Y01326
Y01406
X0659449Y0226378
Y0236221
X0649606
Y0226378
X04514Y02236
Y02312
Y02392
X0406496Y021063
X0399606
Y0202756
X0406496
Y0194882
X0399606
Y0186024
X0406496
Y017815
X0399606
X0418037Y0151813
X04388Y01409
X0438806Y0134172
X04388Y01274
X0446194
X04462Y0134172
X0446194Y01409
X0453844
X0453849Y0134172
X0453844Y01274
X04492Y0120439
Y01138
X04421
X04355
Y0120439
X04421
X04407Y01033
X04322Y01032
X04239
X041437
X0399Y00882
X0375931Y0112343
X03807Y0119574
X0499637Y00884
X03346Y00881
X0324758
X0316929Y0125
Y013189
Y0138779
Y0145669
Y0153543
X0334646
Y0145669
X03367Y01654
X03275
X0319Y01694
Y01769
Y01849
X0318Y02066
Y02152
X032185Y0228346
X032874
X033563
Y0237205
X032874
X032185
Y0244094
X032874
X03353Y0243874
X0320866Y0288386
Y0295276
X0323819Y030315
Y0310039
X0330709
X03373Y03102
Y030331
X0330709Y030315
X0334Y03228
X03259
X03297Y03505
X03372
X03446
X03523
X0308071Y0392717
X0299213
X03598Y03505
X03678
X04307Y0345874
Y0339474
X04372
Y0345874
X04437
Y0339474
X0443614Y0332972
X0437114
X0430614
X04338Y0307374
X04267
X04198
X04137Y02962
X04313Y0296374
Y02898
Y02823
X04392
X04467
Y02898
Y0296374
X04392
Y02898
X04433Y0271874
X04498
X04564
X04631
X04701
X04767
Y0260474
X04701
X04631
X04564
X04498Y0260574
X04434Y0260474
X04699Y0252674
X0477Y0252474
X04016Y0240275
X03783Y02674
X0383644Y0276476
X0649606Y0255906
X0659449
X06675
X06676Y0246063
X0659449
X0649606
X06755Y0255906
X06834
X0765437Y0243963
X0737237Y0364313
X078045Y049185
X077645Y05012
X078045Y0510649
X07898Y051455
X0799249Y0510649
X080315Y05012
X0799249Y049185
X07898Y048785
X0579787Y0461513
X0580137Y0454113
X0608637Y0430513
X0608537Y0422413
X0359837Y0432213
X0357937Y0406913
X03591Y04682
X0365837
X0365937Y0475313
X0366Y04821
X0359263Y0482187
X03593Y0489
X03662
X03592Y04752
X0351687Y0458343
X03412Y0455
X03361Y04393
X0075731Y0448837
X0031049Y049245
X003495Y05018
X0031049Y0511249
X00216Y051515
X001225Y0511249
X000825Y05018
X001225Y049245
X00216Y048845
T04
X04889Y00277
Y00377
Y00477
X07391Y0139
Y0152779
X0769047Y0113913
X0782827
X04889Y02195
Y02295
Y02395
X06507Y04253
Y04353
Y04453
T05
X0331849Y03634
X0331824Y03692
X0331849Y0375
X0607937Y0408953
Y0438874
T06
X064449Y0308275
Y0318275
Y0328275
Y0338275
Y0348275
Y0358275
Y0368275
Y0378275
X067575
Y0368275
Y0358275
Y0348275
Y0338275
Y0328275
Y0318275
Y0308275
T07
X0766937Y0089913
X0776937
X0786937
X05656Y04298
X05556
X05456
X05356
X05256
X05156
Y04897
X05256
X05356
X05456
X05556
X05656
X05056
X04956
X04856
X04756
X04656
X04556
X04456
X04356
X04256
X04156
X04056
X03956
X03856
X03756
Y04298
X03856
X03956
X04056
X04156
X04256
X04356
X04456
X04556
X04656
X04756
X04856
X04956
X05056
T08
X0459335Y0032539
Y0040413
Y0048287
X0461216Y0223404
Y0231278
Y0239152
X0042323Y0171732
Y0161732
Y0151732
Y0141732
X0766252Y0285646
Y0295646
Y0305646
Y0315646
Y0344646
Y0354646
Y0364646
Y0374646
X0323323Y0407331
Y0417331
Y0427331
Y0437331
Y0447331
Y0457331
Y0467331
Y0477331
Y0487331
Y0497331
X0250858
Y0487331
Y0477331
Y0467331
Y0457331
Y0447331
Y0437331
Y0427331
Y0417331
Y0407331
X0175937Y0407913
Y0417913
Y0427913
Y0437913
Y0447913
Y0457913
Y0467913
Y0477913
Y0487913
Y0497913
X01031Y04973
Y04873
Y04773
Y04673
Y04573
Y04473
Y04373
Y04273
Y04173
Y04073
T09
X004747Y0076036
Y0089816
Y0103595
T10
X00081Y0063832
Y01158
T11
X0735287Y047712
X0754972
Y0504679
X0735287
X0636113
X0616428
Y047712
X0636113
T12
X0067518Y0038239
Y0053987
X0081156Y0046113
X0064394Y0082065
Y0097813
X0078032Y0089939
X0067518Y0128639
Y0144387
X0081156Y0136513
X0078032Y0185913
X0064394Y0193787
Y0178039
X0067518Y0222739
Y0238487
X0081156Y0230613
X0078032Y0274513
X0064394Y0282387
Y0266639
X0067518Y0310539
Y0326287
X0081156Y0318413
X0070618Y0356039
Y0371787
X0084256Y0363913
T13
X0737697Y0412065
Y0440412
T14
X0428823Y0033524
X0710319
Y0189035
X07122Y0224388
X0430704
X0428823Y0189035
X0430704Y03799
X07122
T15
X0745129Y04909
X0626271
T16
X00214Y00222
X07898
Y05012
X0208598Y0418898
X00216Y05018
M30
